M48
; DRILL file {KiCad 7.0.0-da2b9df05c~163~ubuntu22.04.1} date Tue 21 Feb 2023 08:52:08 PM EST
; FORMAT={-:-/ absolute / metric / decimal}
; #@! TF.CreationDate,2023-02-21T20:52:08-05:00
; #@! TF.GenerationSoftware,Kicad,Pcbnew,7.0.0-da2b9df05c~163~ubuntu22.04.1
; #@! TF.FileFunction,Plated,1,2,PTH
FMAT,2
METRIC
; #@! TA.AperFunction,Plated,PTH,ComponentDrill
T1C0.600
; #@! TA.AperFunction,Plated,PTH,ComponentDrill
T2C3.200
%
G90
G05
T1
X106.4Y-90.0
X106.4Y-115.0
X106.4Y-140.0
X106.4Y-165.0
X106.4Y-190.0
X108.2Y-85.7
X108.2Y-94.3
X108.2Y-110.7
X108.2Y-119.3
X108.2Y-135.7
X108.2Y-144.3
X108.2Y-160.7
X108.2Y-169.3
X108.2Y-185.7
X108.2Y-194.3
X112.5Y-83.9
X112.5Y-96.1
X112.5Y-108.9
X112.5Y-121.1
X112.5Y-133.9
X112.5Y-146.1
X112.5Y-158.9
X112.5Y-171.1
X112.5Y-183.9
X112.5Y-196.1
X116.7Y-94.4
X116.7Y-119.4
X116.7Y-144.4
X116.7Y-169.4
X116.7Y-194.4
X116.8Y-85.7
X116.8Y-110.7
X116.8Y-135.7
X116.8Y-160.7
X116.8Y-185.7
X118.6Y-90.0
X118.6Y-115.0
X118.6Y-140.0
X118.6Y-165.0
X118.6Y-190.0
X131.4Y-90.0
X131.4Y-115.0
X131.4Y-140.0
X131.4Y-165.0
X131.4Y-190.0
X133.2Y-85.7
X133.2Y-94.3
X133.2Y-110.7
X133.2Y-119.3
X133.2Y-135.7
X133.2Y-144.3
X133.2Y-160.7
X133.2Y-169.3
X133.2Y-185.7
X133.2Y-194.3
X137.5Y-83.9
X137.5Y-96.1
X137.5Y-108.9
X137.5Y-121.1
X137.5Y-133.9
X137.5Y-146.1
X137.5Y-158.9
X137.5Y-171.1
X137.5Y-183.9
X137.5Y-196.1
X141.7Y-94.4
X141.7Y-119.4
X141.7Y-144.4
X141.7Y-169.4
X141.7Y-194.4
X141.8Y-85.7
X141.8Y-110.7
X141.8Y-135.7
X141.8Y-160.7
X141.8Y-185.7
X143.6Y-90.0
X143.6Y-115.0
X143.6Y-140.0
X143.6Y-165.0
X143.6Y-190.0
T2
X103.0Y-18.0G85X105.8Y-18.0
G05
X103.0Y-212.0G85X105.8Y-212.0
G05
X147.0Y-18.0G85X144.2Y-18.0
G05
X147.0Y-212.0G85X144.2Y-212.0
G05
T0
M30
