%TF.GenerationSoftware,KiCad,Pcbnew,7.0.0-da2b9df05c~163~ubuntu22.04.1*%
%TF.CreationDate,2023-02-21T20:52:04-05:00*%
%TF.ProjectId,multiples_panel,6d756c74-6970-46c6-9573-5f70616e656c,rev?*%
%TF.SameCoordinates,Original*%
%TF.FileFunction,Copper,L1,Top*%
%TF.FilePolarity,Positive*%
%FSLAX46Y46*%
G04 Gerber Fmt 4.6, Leading zero omitted, Abs format (unit mm)*
G04 Created by KiCad (PCBNEW 7.0.0-da2b9df05c~163~ubuntu22.04.1) date 2023-02-21 20:52:04*
%MOMM*%
%LPD*%
G01*
G04 APERTURE LIST*
G04 Aperture macros list*
%AMFreePoly0*
4,1,159,6.626847,7.030287,7.150748,6.971257,7.668773,6.873242,8.178024,6.736788,8.675654,6.562660,9.158880,6.351831,9.625000,6.105479,10.071406,5.824983,10.495603,5.511912,10.895218,5.168016,11.268016,4.795218,11.611912,4.395603,11.924983,3.971406,12.205479,3.525000,12.451831,3.058880,12.662660,2.575654,12.836788,2.078024,12.973242,1.568773,13.071257,1.050748,13.130287,0.526847,
13.150000,0.000000,13.130287,-0.526847,13.071257,-1.050748,12.973242,-1.568773,12.836788,-2.078024,12.662660,-2.575654,12.451831,-3.058880,12.205479,-3.525000,11.924983,-3.971406,11.611912,-4.395603,11.268016,-4.795218,10.895218,-5.168016,10.495603,-5.511912,10.071406,-5.824983,9.625000,-6.105479,9.158880,-6.351831,8.675654,-6.562660,8.178024,-6.736788,7.668773,-6.873242,7.150748,-6.971257,
6.626847,-7.030287,6.100000,-7.050000,5.573153,-7.030287,5.049252,-6.971257,4.531227,-6.873242,4.021976,-6.736788,3.524346,-6.562660,3.041120,-6.351831,2.575000,-6.105479,2.128594,-5.824983,1.704397,-5.511912,1.304782,-5.168016,0.931984,-4.795218,0.588088,-4.395603,0.275017,-3.971406,-0.005479,-3.525000,-0.251831,-3.058880,-0.462660,-2.575654,-0.636788,-2.078024,-0.773242,-1.568773,
-0.871257,-1.050748,-0.930287,-0.526847,-0.950000,0.000000,0.945094,0.000000,0.964710,-0.449280,1.023409,-0.895140,1.120743,-1.334188,1.255973,-1.763082,1.428069,-2.178557,1.635720,-2.577453,1.877348,-2.956733,2.151113,-3.313510,2.454931,-3.645069,2.786490,-3.948887,3.143267,-4.222652,3.522547,-4.464280,3.921443,-4.671931,4.336918,-4.844027,4.765812,-4.979257,5.204860,-5.076591,
5.650720,-5.135290,6.100000,-5.154906,6.549280,-5.135290,6.995140,-5.076591,7.434188,-4.979257,7.863082,-4.844027,8.278557,-4.671931,8.677453,-4.464280,9.056733,-4.222652,9.413510,-3.948887,9.745069,-3.645069,10.048887,-3.313510,10.322652,-2.956733,10.564280,-2.577453,10.771931,-2.178557,10.944027,-1.763082,11.079257,-1.334188,11.176591,-0.895140,11.235290,-0.449280,11.254906,0.000000,
11.235290,0.449280,11.176591,0.895140,11.079257,1.334188,10.944027,1.763082,10.771931,2.178557,10.564280,2.577453,10.322652,2.956733,10.048887,3.313510,9.745069,3.645069,9.413510,3.948887,9.056733,4.222652,8.677453,4.464280,8.278557,4.671931,7.863082,4.844027,7.434188,4.979257,6.995140,5.076591,6.549280,5.135290,6.100000,5.154906,5.650720,5.135290,5.204860,5.076591,
4.765812,4.979257,4.336918,4.844027,3.921443,4.671931,3.522547,4.464280,3.143267,4.222652,2.786490,3.948887,2.454931,3.645069,2.151113,3.313510,1.877348,2.956733,1.635720,2.577453,1.428069,2.178557,1.255973,1.763082,1.120743,1.334188,1.023409,0.895140,0.964710,0.449280,0.945094,0.000000,-0.950000,0.000000,-0.930287,0.526847,-0.871257,1.050748,-0.773242,1.568773,
-0.636788,2.078024,-0.462660,2.575654,-0.251831,3.058880,-0.005479,3.525000,0.275017,3.971406,0.588088,4.395603,0.931984,4.795218,1.304782,5.168016,1.704397,5.511912,2.128594,5.824983,2.575000,6.105479,3.041120,6.351831,3.524346,6.562660,4.021976,6.736788,4.531227,6.873242,5.049252,6.971257,5.573153,7.030287,6.100000,7.050000,6.626847,7.030287,6.626847,7.030287,
$1*%
G04 Aperture macros list end*
%TA.AperFunction,SMDPad,CuDef*%
%ADD10FreePoly0,0.000000*%
%TD*%
%TA.AperFunction,ComponentPad*%
%ADD11C,0.800000*%
%TD*%
%TA.AperFunction,ComponentPad*%
%ADD12O,6.800000X4.000000*%
%TD*%
G04 APERTURE END LIST*
D10*
%TO.P,H1,1*%
%TO.N,GND*%
X106400000Y-90000000D03*
D11*
X106400000Y-90000000D03*
X108200000Y-85700000D03*
X108200000Y-94300000D03*
X112500000Y-83900000D03*
X112500000Y-96100000D03*
X116700000Y-94400000D03*
X116800000Y-85700000D03*
X118600000Y-90000000D03*
%TD*%
D10*
%TO.P,H2,1*%
%TO.N,GND*%
X131400000Y-90000000D03*
D11*
X131400000Y-90000000D03*
X133200000Y-85700000D03*
X133200000Y-94300000D03*
X137500000Y-83900000D03*
X137500000Y-96100000D03*
X141700000Y-94400000D03*
X141800000Y-85700000D03*
X143600000Y-90000000D03*
%TD*%
D12*
%TO.P,H3,1*%
%TO.N,GND*%
X104399999Y-17999999D03*
X104399999Y-211999999D03*
%TD*%
D10*
%TO.P,H4,1*%
%TO.N,GND*%
X106400000Y-115000000D03*
D11*
X106400000Y-115000000D03*
X108200000Y-110700000D03*
X108200000Y-119300000D03*
X112500000Y-108900000D03*
X112500000Y-121100000D03*
X116700000Y-119400000D03*
X116800000Y-110700000D03*
X118600000Y-115000000D03*
%TD*%
D10*
%TO.P,H5,1*%
%TO.N,GND*%
X131400000Y-115000000D03*
D11*
X131400000Y-115000000D03*
X133200000Y-110700000D03*
X133200000Y-119300000D03*
X137500000Y-108900000D03*
X137500000Y-121100000D03*
X141700000Y-119400000D03*
X141800000Y-110700000D03*
X143600000Y-115000000D03*
%TD*%
D12*
%TO.P,H6,1*%
%TO.N,GND*%
X145599999Y-211999999D03*
X145599999Y-17999999D03*
%TD*%
D10*
%TO.P,H7,1*%
%TO.N,GND*%
X106400000Y-140000000D03*
D11*
X106400000Y-140000000D03*
X108200000Y-135700000D03*
X108200000Y-144300000D03*
X112500000Y-133900000D03*
X112500000Y-146100000D03*
X116700000Y-144400000D03*
X116800000Y-135700000D03*
X118600000Y-140000000D03*
%TD*%
D10*
%TO.P,H8,1*%
%TO.N,GND*%
X131400000Y-140000000D03*
D11*
X131400000Y-140000000D03*
X133200000Y-135700000D03*
X133200000Y-144300000D03*
X137500000Y-133900000D03*
X137500000Y-146100000D03*
X141700000Y-144400000D03*
X141800000Y-135700000D03*
X143600000Y-140000000D03*
%TD*%
D10*
%TO.P,H9,1*%
%TO.N,GND*%
X106400000Y-165000000D03*
D11*
X106400000Y-165000000D03*
X108200000Y-160700000D03*
X108200000Y-169300000D03*
X112500000Y-158900000D03*
X112500000Y-171100000D03*
X116700000Y-169400000D03*
X116800000Y-160700000D03*
X118600000Y-165000000D03*
%TD*%
D10*
%TO.P,H10,1*%
%TO.N,GND*%
X131400000Y-165000000D03*
D11*
X131400000Y-165000000D03*
X133200000Y-160700000D03*
X133200000Y-169300000D03*
X137500000Y-158900000D03*
X137500000Y-171100000D03*
X141700000Y-169400000D03*
X141800000Y-160700000D03*
X143600000Y-165000000D03*
%TD*%
D10*
%TO.P,H11,1*%
%TO.N,GND*%
X106400000Y-190000000D03*
D11*
X106400000Y-190000000D03*
X108200000Y-185700000D03*
X108200000Y-194300000D03*
X112500000Y-183900000D03*
X112500000Y-196100000D03*
X116700000Y-194400000D03*
X116800000Y-185700000D03*
X118600000Y-190000000D03*
%TD*%
D10*
%TO.P,H12,1*%
%TO.N,GND*%
X131400000Y-190000000D03*
D11*
X131400000Y-190000000D03*
X133200000Y-185700000D03*
X133200000Y-194300000D03*
X137500000Y-183900000D03*
X137500000Y-196100000D03*
X141700000Y-194400000D03*
X141800000Y-185700000D03*
X143600000Y-190000000D03*
%TD*%
%TA.AperFunction,Conductor*%
%TO.N,GND*%
G36*
X149911500Y-15042381D02*
G01*
X149957619Y-15088500D01*
X149974500Y-15151500D01*
X149974500Y-214848500D01*
X149957619Y-214911500D01*
X149911500Y-214957619D01*
X149848500Y-214974500D01*
X100151500Y-214974500D01*
X100088500Y-214957619D01*
X100042381Y-214911500D01*
X100025500Y-214848500D01*
X100025500Y-190000000D01*
X107569535Y-190000000D01*
X107569662Y-190002828D01*
X107589158Y-190436947D01*
X107589384Y-190441963D01*
X107648770Y-190880369D01*
X107747215Y-191311685D01*
X107748083Y-191314358D01*
X107748086Y-191314367D01*
X107883052Y-191729749D01*
X107883927Y-191732441D01*
X107885031Y-191735025D01*
X107885036Y-191735037D01*
X108056694Y-192136651D01*
X108056698Y-192136661D01*
X108057805Y-192139249D01*
X108059146Y-192141741D01*
X108059147Y-192141743D01*
X108266102Y-192526332D01*
X108266108Y-192526343D01*
X108267448Y-192528832D01*
X108269010Y-192531198D01*
X108269011Y-192531200D01*
X108489455Y-192865159D01*
X108511170Y-192898055D01*
X108649088Y-193070999D01*
X108785244Y-193241734D01*
X108785250Y-193241741D01*
X108787007Y-193243944D01*
X109092740Y-193563715D01*
X109425905Y-193854793D01*
X109783822Y-194114834D01*
X110163607Y-194341745D01*
X110562204Y-194533699D01*
X110976403Y-194689151D01*
X111402868Y-194806848D01*
X111838168Y-194885843D01*
X112278796Y-194925500D01*
X112718382Y-194925500D01*
X112721204Y-194925500D01*
X113161832Y-194885843D01*
X113597132Y-194806848D01*
X114023597Y-194689151D01*
X114437796Y-194533699D01*
X114836393Y-194341745D01*
X115216178Y-194114834D01*
X115574095Y-193854793D01*
X115907260Y-193563715D01*
X116212993Y-193243944D01*
X116488830Y-192898055D01*
X116732552Y-192528832D01*
X116942195Y-192139249D01*
X117116073Y-191732441D01*
X117252785Y-191311685D01*
X117351230Y-190880369D01*
X117410616Y-190441963D01*
X117430465Y-190000000D01*
X132569535Y-190000000D01*
X132569662Y-190002828D01*
X132589158Y-190436947D01*
X132589384Y-190441963D01*
X132648770Y-190880369D01*
X132747215Y-191311685D01*
X132748083Y-191314358D01*
X132748086Y-191314367D01*
X132883052Y-191729749D01*
X132883927Y-191732441D01*
X132885031Y-191735025D01*
X132885036Y-191735037D01*
X133056694Y-192136651D01*
X133056698Y-192136661D01*
X133057805Y-192139249D01*
X133059146Y-192141741D01*
X133059147Y-192141743D01*
X133266102Y-192526332D01*
X133266108Y-192526343D01*
X133267448Y-192528832D01*
X133269010Y-192531198D01*
X133269011Y-192531200D01*
X133489455Y-192865159D01*
X133511170Y-192898055D01*
X133649088Y-193070999D01*
X133785244Y-193241734D01*
X133785250Y-193241741D01*
X133787007Y-193243944D01*
X134092740Y-193563715D01*
X134425905Y-193854793D01*
X134783822Y-194114834D01*
X135163607Y-194341745D01*
X135562204Y-194533699D01*
X135976403Y-194689151D01*
X136402868Y-194806848D01*
X136838168Y-194885843D01*
X137278796Y-194925500D01*
X137718382Y-194925500D01*
X137721204Y-194925500D01*
X138161832Y-194885843D01*
X138597132Y-194806848D01*
X139023597Y-194689151D01*
X139437796Y-194533699D01*
X139836393Y-194341745D01*
X140216178Y-194114834D01*
X140574095Y-193854793D01*
X140907260Y-193563715D01*
X141212993Y-193243944D01*
X141488830Y-192898055D01*
X141732552Y-192528832D01*
X141942195Y-192139249D01*
X142116073Y-191732441D01*
X142252785Y-191311685D01*
X142351230Y-190880369D01*
X142410616Y-190441963D01*
X142430465Y-190000000D01*
X142410616Y-189558037D01*
X142351230Y-189119631D01*
X142252785Y-188688315D01*
X142116073Y-188267559D01*
X141942195Y-187860751D01*
X141732552Y-187471168D01*
X141488830Y-187101945D01*
X141212993Y-186756056D01*
X140907260Y-186436285D01*
X140574095Y-186145207D01*
X140280465Y-185931873D01*
X140218462Y-185886825D01*
X140218455Y-185886820D01*
X140216178Y-185885166D01*
X140213765Y-185883724D01*
X140213757Y-185883719D01*
X139838827Y-185659709D01*
X139838822Y-185659706D01*
X139836393Y-185658255D01*
X139437796Y-185466301D01*
X139435165Y-185465313D01*
X139435159Y-185465311D01*
X139026244Y-185311842D01*
X139026235Y-185311839D01*
X139023597Y-185310849D01*
X139020865Y-185310095D01*
X138599866Y-185193906D01*
X138599854Y-185193903D01*
X138597132Y-185193152D01*
X138594356Y-185192648D01*
X138594342Y-185192645D01*
X138164612Y-185114661D01*
X138164601Y-185114659D01*
X138161832Y-185114157D01*
X138159021Y-185113904D01*
X137724012Y-185074752D01*
X137723996Y-185074751D01*
X137721204Y-185074500D01*
X137278796Y-185074500D01*
X137276004Y-185074751D01*
X137275987Y-185074752D01*
X136840978Y-185113904D01*
X136840975Y-185113904D01*
X136838168Y-185114157D01*
X136835401Y-185114659D01*
X136835387Y-185114661D01*
X136405657Y-185192645D01*
X136405638Y-185192649D01*
X136402868Y-185193152D01*
X136400150Y-185193902D01*
X136400133Y-185193906D01*
X135979134Y-185310095D01*
X135979128Y-185310096D01*
X135976403Y-185310849D01*
X135973771Y-185311836D01*
X135973755Y-185311842D01*
X135564840Y-185465311D01*
X135564826Y-185465316D01*
X135562204Y-185466301D01*
X135163607Y-185658255D01*
X135161186Y-185659701D01*
X135161172Y-185659709D01*
X134786242Y-185883719D01*
X134786224Y-185883730D01*
X134783822Y-185885166D01*
X134781554Y-185886813D01*
X134781537Y-185886825D01*
X134428198Y-186143540D01*
X134428183Y-186143551D01*
X134425905Y-186145207D01*
X134423784Y-186147059D01*
X134423769Y-186147072D01*
X134094872Y-186434422D01*
X134092740Y-186436285D01*
X134090793Y-186438321D01*
X134090784Y-186438330D01*
X133788963Y-186754009D01*
X133788950Y-186754022D01*
X133787007Y-186756056D01*
X133785259Y-186758246D01*
X133785244Y-186758265D01*
X133512933Y-187099734D01*
X133511170Y-187101945D01*
X133509617Y-187104296D01*
X133509608Y-187104310D01*
X133269011Y-187468799D01*
X133269003Y-187468811D01*
X133267448Y-187471168D01*
X133266114Y-187473646D01*
X133266102Y-187473667D01*
X133059147Y-187858256D01*
X133059141Y-187858266D01*
X133057805Y-187860751D01*
X133056702Y-187863329D01*
X133056694Y-187863348D01*
X132885036Y-188264962D01*
X132885028Y-188264981D01*
X132883927Y-188267559D01*
X132883056Y-188270237D01*
X132883052Y-188270250D01*
X132748086Y-188685632D01*
X132748081Y-188685647D01*
X132747215Y-188688315D01*
X132746589Y-188691055D01*
X132746588Y-188691061D01*
X132649398Y-189116877D01*
X132649395Y-189116889D01*
X132648770Y-189119631D01*
X132648391Y-189122425D01*
X132648391Y-189122428D01*
X132589762Y-189555242D01*
X132589760Y-189555255D01*
X132589384Y-189558037D01*
X132589257Y-189560851D01*
X132589257Y-189560858D01*
X132569662Y-189997172D01*
X132569535Y-190000000D01*
X117430465Y-190000000D01*
X117410616Y-189558037D01*
X117351230Y-189119631D01*
X117252785Y-188688315D01*
X117116073Y-188267559D01*
X116942195Y-187860751D01*
X116732552Y-187471168D01*
X116488830Y-187101945D01*
X116212993Y-186756056D01*
X115907260Y-186436285D01*
X115574095Y-186145207D01*
X115280465Y-185931873D01*
X115218462Y-185886825D01*
X115218455Y-185886820D01*
X115216178Y-185885166D01*
X115213765Y-185883724D01*
X115213757Y-185883719D01*
X114838827Y-185659709D01*
X114838822Y-185659706D01*
X114836393Y-185658255D01*
X114437796Y-185466301D01*
X114435165Y-185465313D01*
X114435159Y-185465311D01*
X114026244Y-185311842D01*
X114026235Y-185311839D01*
X114023597Y-185310849D01*
X114020865Y-185310095D01*
X113599866Y-185193906D01*
X113599854Y-185193903D01*
X113597132Y-185193152D01*
X113594356Y-185192648D01*
X113594342Y-185192645D01*
X113164612Y-185114661D01*
X113164601Y-185114659D01*
X113161832Y-185114157D01*
X113159021Y-185113904D01*
X112724012Y-185074752D01*
X112723996Y-185074751D01*
X112721204Y-185074500D01*
X112278796Y-185074500D01*
X112276004Y-185074751D01*
X112275987Y-185074752D01*
X111840978Y-185113904D01*
X111840975Y-185113904D01*
X111838168Y-185114157D01*
X111835401Y-185114659D01*
X111835387Y-185114661D01*
X111405657Y-185192645D01*
X111405638Y-185192649D01*
X111402868Y-185193152D01*
X111400150Y-185193902D01*
X111400133Y-185193906D01*
X110979134Y-185310095D01*
X110979128Y-185310096D01*
X110976403Y-185310849D01*
X110973771Y-185311836D01*
X110973755Y-185311842D01*
X110564840Y-185465311D01*
X110564826Y-185465316D01*
X110562204Y-185466301D01*
X110163607Y-185658255D01*
X110161186Y-185659701D01*
X110161172Y-185659709D01*
X109786242Y-185883719D01*
X109786224Y-185883730D01*
X109783822Y-185885166D01*
X109781554Y-185886813D01*
X109781537Y-185886825D01*
X109428198Y-186143540D01*
X109428183Y-186143551D01*
X109425905Y-186145207D01*
X109423784Y-186147059D01*
X109423769Y-186147072D01*
X109094872Y-186434422D01*
X109092740Y-186436285D01*
X109090793Y-186438321D01*
X109090784Y-186438330D01*
X108788963Y-186754009D01*
X108788950Y-186754022D01*
X108787007Y-186756056D01*
X108785259Y-186758246D01*
X108785244Y-186758265D01*
X108512933Y-187099734D01*
X108511170Y-187101945D01*
X108509617Y-187104296D01*
X108509608Y-187104310D01*
X108269011Y-187468799D01*
X108269003Y-187468811D01*
X108267448Y-187471168D01*
X108266114Y-187473646D01*
X108266102Y-187473667D01*
X108059147Y-187858256D01*
X108059141Y-187858266D01*
X108057805Y-187860751D01*
X108056702Y-187863329D01*
X108056694Y-187863348D01*
X107885036Y-188264962D01*
X107885028Y-188264981D01*
X107883927Y-188267559D01*
X107883056Y-188270237D01*
X107883052Y-188270250D01*
X107748086Y-188685632D01*
X107748081Y-188685647D01*
X107747215Y-188688315D01*
X107746589Y-188691055D01*
X107746588Y-188691061D01*
X107649398Y-189116877D01*
X107649395Y-189116889D01*
X107648770Y-189119631D01*
X107648391Y-189122425D01*
X107648391Y-189122428D01*
X107589762Y-189555242D01*
X107589760Y-189555255D01*
X107589384Y-189558037D01*
X107589257Y-189560851D01*
X107589257Y-189560858D01*
X107569662Y-189997172D01*
X107569535Y-190000000D01*
X100025500Y-190000000D01*
X100025500Y-165000000D01*
X107569535Y-165000000D01*
X107569662Y-165002828D01*
X107589158Y-165436947D01*
X107589384Y-165441963D01*
X107648770Y-165880369D01*
X107747215Y-166311685D01*
X107748083Y-166314358D01*
X107748086Y-166314367D01*
X107883052Y-166729749D01*
X107883927Y-166732441D01*
X107885031Y-166735025D01*
X107885036Y-166735037D01*
X108056694Y-167136651D01*
X108056698Y-167136661D01*
X108057805Y-167139249D01*
X108059146Y-167141741D01*
X108059147Y-167141743D01*
X108266102Y-167526332D01*
X108266108Y-167526343D01*
X108267448Y-167528832D01*
X108269010Y-167531198D01*
X108269011Y-167531200D01*
X108489455Y-167865159D01*
X108511170Y-167898055D01*
X108649088Y-168070999D01*
X108785244Y-168241734D01*
X108785250Y-168241741D01*
X108787007Y-168243944D01*
X109092740Y-168563715D01*
X109425905Y-168854793D01*
X109783822Y-169114834D01*
X110163607Y-169341745D01*
X110562204Y-169533699D01*
X110976403Y-169689151D01*
X111402868Y-169806848D01*
X111838168Y-169885843D01*
X112278796Y-169925500D01*
X112718382Y-169925500D01*
X112721204Y-169925500D01*
X113161832Y-169885843D01*
X113597132Y-169806848D01*
X114023597Y-169689151D01*
X114437796Y-169533699D01*
X114836393Y-169341745D01*
X115216178Y-169114834D01*
X115574095Y-168854793D01*
X115907260Y-168563715D01*
X116212993Y-168243944D01*
X116488830Y-167898055D01*
X116732552Y-167528832D01*
X116942195Y-167139249D01*
X117116073Y-166732441D01*
X117252785Y-166311685D01*
X117351230Y-165880369D01*
X117410616Y-165441963D01*
X117430465Y-165000000D01*
X132569535Y-165000000D01*
X132569662Y-165002828D01*
X132589158Y-165436947D01*
X132589384Y-165441963D01*
X132648770Y-165880369D01*
X132747215Y-166311685D01*
X132748083Y-166314358D01*
X132748086Y-166314367D01*
X132883052Y-166729749D01*
X132883927Y-166732441D01*
X132885031Y-166735025D01*
X132885036Y-166735037D01*
X133056694Y-167136651D01*
X133056698Y-167136661D01*
X133057805Y-167139249D01*
X133059146Y-167141741D01*
X133059147Y-167141743D01*
X133266102Y-167526332D01*
X133266108Y-167526343D01*
X133267448Y-167528832D01*
X133269010Y-167531198D01*
X133269011Y-167531200D01*
X133489455Y-167865159D01*
X133511170Y-167898055D01*
X133649088Y-168070999D01*
X133785244Y-168241734D01*
X133785250Y-168241741D01*
X133787007Y-168243944D01*
X134092740Y-168563715D01*
X134425905Y-168854793D01*
X134783822Y-169114834D01*
X135163607Y-169341745D01*
X135562204Y-169533699D01*
X135976403Y-169689151D01*
X136402868Y-169806848D01*
X136838168Y-169885843D01*
X137278796Y-169925500D01*
X137718382Y-169925500D01*
X137721204Y-169925500D01*
X138161832Y-169885843D01*
X138597132Y-169806848D01*
X139023597Y-169689151D01*
X139437796Y-169533699D01*
X139836393Y-169341745D01*
X140216178Y-169114834D01*
X140574095Y-168854793D01*
X140907260Y-168563715D01*
X141212993Y-168243944D01*
X141488830Y-167898055D01*
X141732552Y-167528832D01*
X141942195Y-167139249D01*
X142116073Y-166732441D01*
X142252785Y-166311685D01*
X142351230Y-165880369D01*
X142410616Y-165441963D01*
X142430465Y-165000000D01*
X142410616Y-164558037D01*
X142351230Y-164119631D01*
X142252785Y-163688315D01*
X142116073Y-163267559D01*
X141942195Y-162860751D01*
X141732552Y-162471168D01*
X141488830Y-162101945D01*
X141212993Y-161756056D01*
X140907260Y-161436285D01*
X140574095Y-161145207D01*
X140280465Y-160931873D01*
X140218462Y-160886825D01*
X140218455Y-160886820D01*
X140216178Y-160885166D01*
X140213765Y-160883724D01*
X140213757Y-160883719D01*
X139838827Y-160659709D01*
X139838822Y-160659706D01*
X139836393Y-160658255D01*
X139437796Y-160466301D01*
X139435165Y-160465313D01*
X139435159Y-160465311D01*
X139026244Y-160311842D01*
X139026235Y-160311839D01*
X139023597Y-160310849D01*
X139020865Y-160310095D01*
X138599866Y-160193906D01*
X138599854Y-160193903D01*
X138597132Y-160193152D01*
X138594356Y-160192648D01*
X138594342Y-160192645D01*
X138164612Y-160114661D01*
X138164601Y-160114659D01*
X138161832Y-160114157D01*
X138159021Y-160113904D01*
X137724012Y-160074752D01*
X137723996Y-160074751D01*
X137721204Y-160074500D01*
X137278796Y-160074500D01*
X137276004Y-160074751D01*
X137275987Y-160074752D01*
X136840978Y-160113904D01*
X136840975Y-160113904D01*
X136838168Y-160114157D01*
X136835401Y-160114659D01*
X136835387Y-160114661D01*
X136405657Y-160192645D01*
X136405638Y-160192649D01*
X136402868Y-160193152D01*
X136400150Y-160193902D01*
X136400133Y-160193906D01*
X135979134Y-160310095D01*
X135979128Y-160310096D01*
X135976403Y-160310849D01*
X135973771Y-160311836D01*
X135973755Y-160311842D01*
X135564840Y-160465311D01*
X135564826Y-160465316D01*
X135562204Y-160466301D01*
X135163607Y-160658255D01*
X135161186Y-160659701D01*
X135161172Y-160659709D01*
X134786242Y-160883719D01*
X134786224Y-160883730D01*
X134783822Y-160885166D01*
X134781554Y-160886813D01*
X134781537Y-160886825D01*
X134428198Y-161143540D01*
X134428183Y-161143551D01*
X134425905Y-161145207D01*
X134423784Y-161147059D01*
X134423769Y-161147072D01*
X134094872Y-161434422D01*
X134092740Y-161436285D01*
X134090793Y-161438321D01*
X134090784Y-161438330D01*
X133788963Y-161754009D01*
X133788950Y-161754022D01*
X133787007Y-161756056D01*
X133785259Y-161758246D01*
X133785244Y-161758265D01*
X133512933Y-162099734D01*
X133511170Y-162101945D01*
X133509617Y-162104296D01*
X133509608Y-162104310D01*
X133269011Y-162468799D01*
X133269003Y-162468811D01*
X133267448Y-162471168D01*
X133266114Y-162473646D01*
X133266102Y-162473667D01*
X133059147Y-162858256D01*
X133059141Y-162858266D01*
X133057805Y-162860751D01*
X133056702Y-162863329D01*
X133056694Y-162863348D01*
X132885036Y-163264962D01*
X132885028Y-163264981D01*
X132883927Y-163267559D01*
X132883056Y-163270237D01*
X132883052Y-163270250D01*
X132748086Y-163685632D01*
X132748081Y-163685647D01*
X132747215Y-163688315D01*
X132746589Y-163691055D01*
X132746588Y-163691061D01*
X132649398Y-164116877D01*
X132649395Y-164116889D01*
X132648770Y-164119631D01*
X132648391Y-164122425D01*
X132648391Y-164122428D01*
X132589762Y-164555242D01*
X132589760Y-164555255D01*
X132589384Y-164558037D01*
X132589257Y-164560851D01*
X132589257Y-164560858D01*
X132569662Y-164997172D01*
X132569535Y-165000000D01*
X117430465Y-165000000D01*
X117410616Y-164558037D01*
X117351230Y-164119631D01*
X117252785Y-163688315D01*
X117116073Y-163267559D01*
X116942195Y-162860751D01*
X116732552Y-162471168D01*
X116488830Y-162101945D01*
X116212993Y-161756056D01*
X115907260Y-161436285D01*
X115574095Y-161145207D01*
X115280465Y-160931873D01*
X115218462Y-160886825D01*
X115218455Y-160886820D01*
X115216178Y-160885166D01*
X115213765Y-160883724D01*
X115213757Y-160883719D01*
X114838827Y-160659709D01*
X114838822Y-160659706D01*
X114836393Y-160658255D01*
X114437796Y-160466301D01*
X114435165Y-160465313D01*
X114435159Y-160465311D01*
X114026244Y-160311842D01*
X114026235Y-160311839D01*
X114023597Y-160310849D01*
X114020865Y-160310095D01*
X113599866Y-160193906D01*
X113599854Y-160193903D01*
X113597132Y-160193152D01*
X113594356Y-160192648D01*
X113594342Y-160192645D01*
X113164612Y-160114661D01*
X113164601Y-160114659D01*
X113161832Y-160114157D01*
X113159021Y-160113904D01*
X112724012Y-160074752D01*
X112723996Y-160074751D01*
X112721204Y-160074500D01*
X112278796Y-160074500D01*
X112276004Y-160074751D01*
X112275987Y-160074752D01*
X111840978Y-160113904D01*
X111840975Y-160113904D01*
X111838168Y-160114157D01*
X111835401Y-160114659D01*
X111835387Y-160114661D01*
X111405657Y-160192645D01*
X111405638Y-160192649D01*
X111402868Y-160193152D01*
X111400150Y-160193902D01*
X111400133Y-160193906D01*
X110979134Y-160310095D01*
X110979128Y-160310096D01*
X110976403Y-160310849D01*
X110973771Y-160311836D01*
X110973755Y-160311842D01*
X110564840Y-160465311D01*
X110564826Y-160465316D01*
X110562204Y-160466301D01*
X110163607Y-160658255D01*
X110161186Y-160659701D01*
X110161172Y-160659709D01*
X109786242Y-160883719D01*
X109786224Y-160883730D01*
X109783822Y-160885166D01*
X109781554Y-160886813D01*
X109781537Y-160886825D01*
X109428198Y-161143540D01*
X109428183Y-161143551D01*
X109425905Y-161145207D01*
X109423784Y-161147059D01*
X109423769Y-161147072D01*
X109094872Y-161434422D01*
X109092740Y-161436285D01*
X109090793Y-161438321D01*
X109090784Y-161438330D01*
X108788963Y-161754009D01*
X108788950Y-161754022D01*
X108787007Y-161756056D01*
X108785259Y-161758246D01*
X108785244Y-161758265D01*
X108512933Y-162099734D01*
X108511170Y-162101945D01*
X108509617Y-162104296D01*
X108509608Y-162104310D01*
X108269011Y-162468799D01*
X108269003Y-162468811D01*
X108267448Y-162471168D01*
X108266114Y-162473646D01*
X108266102Y-162473667D01*
X108059147Y-162858256D01*
X108059141Y-162858266D01*
X108057805Y-162860751D01*
X108056702Y-162863329D01*
X108056694Y-162863348D01*
X107885036Y-163264962D01*
X107885028Y-163264981D01*
X107883927Y-163267559D01*
X107883056Y-163270237D01*
X107883052Y-163270250D01*
X107748086Y-163685632D01*
X107748081Y-163685647D01*
X107747215Y-163688315D01*
X107746589Y-163691055D01*
X107746588Y-163691061D01*
X107649398Y-164116877D01*
X107649395Y-164116889D01*
X107648770Y-164119631D01*
X107648391Y-164122425D01*
X107648391Y-164122428D01*
X107589762Y-164555242D01*
X107589760Y-164555255D01*
X107589384Y-164558037D01*
X107589257Y-164560851D01*
X107589257Y-164560858D01*
X107569662Y-164997172D01*
X107569535Y-165000000D01*
X100025500Y-165000000D01*
X100025500Y-140000000D01*
X107569535Y-140000000D01*
X107569662Y-140002828D01*
X107589158Y-140436947D01*
X107589384Y-140441963D01*
X107648770Y-140880369D01*
X107747215Y-141311685D01*
X107748083Y-141314358D01*
X107748086Y-141314367D01*
X107883052Y-141729749D01*
X107883927Y-141732441D01*
X107885031Y-141735025D01*
X107885036Y-141735037D01*
X108056694Y-142136651D01*
X108056698Y-142136661D01*
X108057805Y-142139249D01*
X108059146Y-142141741D01*
X108059147Y-142141743D01*
X108266102Y-142526332D01*
X108266108Y-142526343D01*
X108267448Y-142528832D01*
X108269010Y-142531198D01*
X108269011Y-142531200D01*
X108489455Y-142865159D01*
X108511170Y-142898055D01*
X108649088Y-143070999D01*
X108785244Y-143241734D01*
X108785250Y-143241741D01*
X108787007Y-143243944D01*
X109092740Y-143563715D01*
X109425905Y-143854793D01*
X109783822Y-144114834D01*
X110163607Y-144341745D01*
X110562204Y-144533699D01*
X110976403Y-144689151D01*
X111402868Y-144806848D01*
X111838168Y-144885843D01*
X112278796Y-144925500D01*
X112718382Y-144925500D01*
X112721204Y-144925500D01*
X113161832Y-144885843D01*
X113597132Y-144806848D01*
X114023597Y-144689151D01*
X114437796Y-144533699D01*
X114836393Y-144341745D01*
X115216178Y-144114834D01*
X115574095Y-143854793D01*
X115907260Y-143563715D01*
X116212993Y-143243944D01*
X116488830Y-142898055D01*
X116732552Y-142528832D01*
X116942195Y-142139249D01*
X117116073Y-141732441D01*
X117252785Y-141311685D01*
X117351230Y-140880369D01*
X117410616Y-140441963D01*
X117430465Y-140000000D01*
X132569535Y-140000000D01*
X132569662Y-140002828D01*
X132589158Y-140436947D01*
X132589384Y-140441963D01*
X132648770Y-140880369D01*
X132747215Y-141311685D01*
X132748083Y-141314358D01*
X132748086Y-141314367D01*
X132883052Y-141729749D01*
X132883927Y-141732441D01*
X132885031Y-141735025D01*
X132885036Y-141735037D01*
X133056694Y-142136651D01*
X133056698Y-142136661D01*
X133057805Y-142139249D01*
X133059146Y-142141741D01*
X133059147Y-142141743D01*
X133266102Y-142526332D01*
X133266108Y-142526343D01*
X133267448Y-142528832D01*
X133269010Y-142531198D01*
X133269011Y-142531200D01*
X133489455Y-142865159D01*
X133511170Y-142898055D01*
X133649088Y-143070999D01*
X133785244Y-143241734D01*
X133785250Y-143241741D01*
X133787007Y-143243944D01*
X134092740Y-143563715D01*
X134425905Y-143854793D01*
X134783822Y-144114834D01*
X135163607Y-144341745D01*
X135562204Y-144533699D01*
X135976403Y-144689151D01*
X136402868Y-144806848D01*
X136838168Y-144885843D01*
X137278796Y-144925500D01*
X137718382Y-144925500D01*
X137721204Y-144925500D01*
X138161832Y-144885843D01*
X138597132Y-144806848D01*
X139023597Y-144689151D01*
X139437796Y-144533699D01*
X139836393Y-144341745D01*
X140216178Y-144114834D01*
X140574095Y-143854793D01*
X140907260Y-143563715D01*
X141212993Y-143243944D01*
X141488830Y-142898055D01*
X141732552Y-142528832D01*
X141942195Y-142139249D01*
X142116073Y-141732441D01*
X142252785Y-141311685D01*
X142351230Y-140880369D01*
X142410616Y-140441963D01*
X142430465Y-140000000D01*
X142410616Y-139558037D01*
X142351230Y-139119631D01*
X142252785Y-138688315D01*
X142116073Y-138267559D01*
X141942195Y-137860751D01*
X141732552Y-137471168D01*
X141488830Y-137101945D01*
X141212993Y-136756056D01*
X140907260Y-136436285D01*
X140574095Y-136145207D01*
X140280465Y-135931873D01*
X140218462Y-135886825D01*
X140218455Y-135886820D01*
X140216178Y-135885166D01*
X140213765Y-135883724D01*
X140213757Y-135883719D01*
X139838827Y-135659709D01*
X139838822Y-135659706D01*
X139836393Y-135658255D01*
X139437796Y-135466301D01*
X139435165Y-135465313D01*
X139435159Y-135465311D01*
X139026244Y-135311842D01*
X139026235Y-135311839D01*
X139023597Y-135310849D01*
X139020865Y-135310095D01*
X138599866Y-135193906D01*
X138599854Y-135193903D01*
X138597132Y-135193152D01*
X138594356Y-135192648D01*
X138594342Y-135192645D01*
X138164612Y-135114661D01*
X138164601Y-135114659D01*
X138161832Y-135114157D01*
X138159021Y-135113904D01*
X137724012Y-135074752D01*
X137723996Y-135074751D01*
X137721204Y-135074500D01*
X137278796Y-135074500D01*
X137276004Y-135074751D01*
X137275987Y-135074752D01*
X136840978Y-135113904D01*
X136840975Y-135113904D01*
X136838168Y-135114157D01*
X136835401Y-135114659D01*
X136835387Y-135114661D01*
X136405657Y-135192645D01*
X136405638Y-135192649D01*
X136402868Y-135193152D01*
X136400150Y-135193902D01*
X136400133Y-135193906D01*
X135979134Y-135310095D01*
X135979128Y-135310096D01*
X135976403Y-135310849D01*
X135973771Y-135311836D01*
X135973755Y-135311842D01*
X135564840Y-135465311D01*
X135564826Y-135465316D01*
X135562204Y-135466301D01*
X135163607Y-135658255D01*
X135161186Y-135659701D01*
X135161172Y-135659709D01*
X134786242Y-135883719D01*
X134786224Y-135883730D01*
X134783822Y-135885166D01*
X134781554Y-135886813D01*
X134781537Y-135886825D01*
X134428198Y-136143540D01*
X134428183Y-136143551D01*
X134425905Y-136145207D01*
X134423784Y-136147059D01*
X134423769Y-136147072D01*
X134094872Y-136434422D01*
X134092740Y-136436285D01*
X134090793Y-136438321D01*
X134090784Y-136438330D01*
X133788963Y-136754009D01*
X133788950Y-136754022D01*
X133787007Y-136756056D01*
X133785259Y-136758246D01*
X133785244Y-136758265D01*
X133512933Y-137099734D01*
X133511170Y-137101945D01*
X133509617Y-137104296D01*
X133509608Y-137104310D01*
X133269011Y-137468799D01*
X133269003Y-137468811D01*
X133267448Y-137471168D01*
X133266114Y-137473646D01*
X133266102Y-137473667D01*
X133059147Y-137858256D01*
X133059141Y-137858266D01*
X133057805Y-137860751D01*
X133056702Y-137863329D01*
X133056694Y-137863348D01*
X132885036Y-138264962D01*
X132885028Y-138264981D01*
X132883927Y-138267559D01*
X132883056Y-138270237D01*
X132883052Y-138270250D01*
X132748086Y-138685632D01*
X132748081Y-138685647D01*
X132747215Y-138688315D01*
X132746589Y-138691055D01*
X132746588Y-138691061D01*
X132649398Y-139116877D01*
X132649395Y-139116889D01*
X132648770Y-139119631D01*
X132648391Y-139122425D01*
X132648391Y-139122428D01*
X132589762Y-139555242D01*
X132589760Y-139555255D01*
X132589384Y-139558037D01*
X132589257Y-139560851D01*
X132589257Y-139560858D01*
X132569662Y-139997172D01*
X132569535Y-140000000D01*
X117430465Y-140000000D01*
X117410616Y-139558037D01*
X117351230Y-139119631D01*
X117252785Y-138688315D01*
X117116073Y-138267559D01*
X116942195Y-137860751D01*
X116732552Y-137471168D01*
X116488830Y-137101945D01*
X116212993Y-136756056D01*
X115907260Y-136436285D01*
X115574095Y-136145207D01*
X115280465Y-135931873D01*
X115218462Y-135886825D01*
X115218455Y-135886820D01*
X115216178Y-135885166D01*
X115213765Y-135883724D01*
X115213757Y-135883719D01*
X114838827Y-135659709D01*
X114838822Y-135659706D01*
X114836393Y-135658255D01*
X114437796Y-135466301D01*
X114435165Y-135465313D01*
X114435159Y-135465311D01*
X114026244Y-135311842D01*
X114026235Y-135311839D01*
X114023597Y-135310849D01*
X114020865Y-135310095D01*
X113599866Y-135193906D01*
X113599854Y-135193903D01*
X113597132Y-135193152D01*
X113594356Y-135192648D01*
X113594342Y-135192645D01*
X113164612Y-135114661D01*
X113164601Y-135114659D01*
X113161832Y-135114157D01*
X113159021Y-135113904D01*
X112724012Y-135074752D01*
X112723996Y-135074751D01*
X112721204Y-135074500D01*
X112278796Y-135074500D01*
X112276004Y-135074751D01*
X112275987Y-135074752D01*
X111840978Y-135113904D01*
X111840975Y-135113904D01*
X111838168Y-135114157D01*
X111835401Y-135114659D01*
X111835387Y-135114661D01*
X111405657Y-135192645D01*
X111405638Y-135192649D01*
X111402868Y-135193152D01*
X111400150Y-135193902D01*
X111400133Y-135193906D01*
X110979134Y-135310095D01*
X110979128Y-135310096D01*
X110976403Y-135310849D01*
X110973771Y-135311836D01*
X110973755Y-135311842D01*
X110564840Y-135465311D01*
X110564826Y-135465316D01*
X110562204Y-135466301D01*
X110163607Y-135658255D01*
X110161186Y-135659701D01*
X110161172Y-135659709D01*
X109786242Y-135883719D01*
X109786224Y-135883730D01*
X109783822Y-135885166D01*
X109781554Y-135886813D01*
X109781537Y-135886825D01*
X109428198Y-136143540D01*
X109428183Y-136143551D01*
X109425905Y-136145207D01*
X109423784Y-136147059D01*
X109423769Y-136147072D01*
X109094872Y-136434422D01*
X109092740Y-136436285D01*
X109090793Y-136438321D01*
X109090784Y-136438330D01*
X108788963Y-136754009D01*
X108788950Y-136754022D01*
X108787007Y-136756056D01*
X108785259Y-136758246D01*
X108785244Y-136758265D01*
X108512933Y-137099734D01*
X108511170Y-137101945D01*
X108509617Y-137104296D01*
X108509608Y-137104310D01*
X108269011Y-137468799D01*
X108269003Y-137468811D01*
X108267448Y-137471168D01*
X108266114Y-137473646D01*
X108266102Y-137473667D01*
X108059147Y-137858256D01*
X108059141Y-137858266D01*
X108057805Y-137860751D01*
X108056702Y-137863329D01*
X108056694Y-137863348D01*
X107885036Y-138264962D01*
X107885028Y-138264981D01*
X107883927Y-138267559D01*
X107883056Y-138270237D01*
X107883052Y-138270250D01*
X107748086Y-138685632D01*
X107748081Y-138685647D01*
X107747215Y-138688315D01*
X107746589Y-138691055D01*
X107746588Y-138691061D01*
X107649398Y-139116877D01*
X107649395Y-139116889D01*
X107648770Y-139119631D01*
X107648391Y-139122425D01*
X107648391Y-139122428D01*
X107589762Y-139555242D01*
X107589760Y-139555255D01*
X107589384Y-139558037D01*
X107589257Y-139560851D01*
X107589257Y-139560858D01*
X107569662Y-139997172D01*
X107569535Y-140000000D01*
X100025500Y-140000000D01*
X100025500Y-115000000D01*
X107569535Y-115000000D01*
X107569662Y-115002828D01*
X107589158Y-115436947D01*
X107589384Y-115441963D01*
X107648770Y-115880369D01*
X107747215Y-116311685D01*
X107748083Y-116314358D01*
X107748086Y-116314367D01*
X107883052Y-116729749D01*
X107883927Y-116732441D01*
X107885031Y-116735025D01*
X107885036Y-116735037D01*
X108056694Y-117136651D01*
X108056698Y-117136661D01*
X108057805Y-117139249D01*
X108059146Y-117141741D01*
X108059147Y-117141743D01*
X108266102Y-117526332D01*
X108266108Y-117526343D01*
X108267448Y-117528832D01*
X108269010Y-117531198D01*
X108269011Y-117531200D01*
X108489455Y-117865159D01*
X108511170Y-117898055D01*
X108649088Y-118070999D01*
X108785244Y-118241734D01*
X108785250Y-118241741D01*
X108787007Y-118243944D01*
X109092740Y-118563715D01*
X109425905Y-118854793D01*
X109783822Y-119114834D01*
X110163607Y-119341745D01*
X110562204Y-119533699D01*
X110976403Y-119689151D01*
X111402868Y-119806848D01*
X111838168Y-119885843D01*
X112278796Y-119925500D01*
X112718382Y-119925500D01*
X112721204Y-119925500D01*
X113161832Y-119885843D01*
X113597132Y-119806848D01*
X114023597Y-119689151D01*
X114437796Y-119533699D01*
X114836393Y-119341745D01*
X115216178Y-119114834D01*
X115574095Y-118854793D01*
X115907260Y-118563715D01*
X116212993Y-118243944D01*
X116488830Y-117898055D01*
X116732552Y-117528832D01*
X116942195Y-117139249D01*
X117116073Y-116732441D01*
X117252785Y-116311685D01*
X117351230Y-115880369D01*
X117410616Y-115441963D01*
X117430465Y-115000000D01*
X132569535Y-115000000D01*
X132569662Y-115002828D01*
X132589158Y-115436947D01*
X132589384Y-115441963D01*
X132648770Y-115880369D01*
X132747215Y-116311685D01*
X132748083Y-116314358D01*
X132748086Y-116314367D01*
X132883052Y-116729749D01*
X132883927Y-116732441D01*
X132885031Y-116735025D01*
X132885036Y-116735037D01*
X133056694Y-117136651D01*
X133056698Y-117136661D01*
X133057805Y-117139249D01*
X133059146Y-117141741D01*
X133059147Y-117141743D01*
X133266102Y-117526332D01*
X133266108Y-117526343D01*
X133267448Y-117528832D01*
X133269010Y-117531198D01*
X133269011Y-117531200D01*
X133489455Y-117865159D01*
X133511170Y-117898055D01*
X133649088Y-118070999D01*
X133785244Y-118241734D01*
X133785250Y-118241741D01*
X133787007Y-118243944D01*
X134092740Y-118563715D01*
X134425905Y-118854793D01*
X134783822Y-119114834D01*
X135163607Y-119341745D01*
X135562204Y-119533699D01*
X135976403Y-119689151D01*
X136402868Y-119806848D01*
X136838168Y-119885843D01*
X137278796Y-119925500D01*
X137718382Y-119925500D01*
X137721204Y-119925500D01*
X138161832Y-119885843D01*
X138597132Y-119806848D01*
X139023597Y-119689151D01*
X139437796Y-119533699D01*
X139836393Y-119341745D01*
X140216178Y-119114834D01*
X140574095Y-118854793D01*
X140907260Y-118563715D01*
X141212993Y-118243944D01*
X141488830Y-117898055D01*
X141732552Y-117528832D01*
X141942195Y-117139249D01*
X142116073Y-116732441D01*
X142252785Y-116311685D01*
X142351230Y-115880369D01*
X142410616Y-115441963D01*
X142430465Y-115000000D01*
X142410616Y-114558037D01*
X142351230Y-114119631D01*
X142252785Y-113688315D01*
X142116073Y-113267559D01*
X141942195Y-112860751D01*
X141732552Y-112471168D01*
X141488830Y-112101945D01*
X141212993Y-111756056D01*
X140907260Y-111436285D01*
X140574095Y-111145207D01*
X140280465Y-110931873D01*
X140218462Y-110886825D01*
X140218455Y-110886820D01*
X140216178Y-110885166D01*
X140213765Y-110883724D01*
X140213757Y-110883719D01*
X139838827Y-110659709D01*
X139838822Y-110659706D01*
X139836393Y-110658255D01*
X139437796Y-110466301D01*
X139435165Y-110465313D01*
X139435159Y-110465311D01*
X139026244Y-110311842D01*
X139026235Y-110311839D01*
X139023597Y-110310849D01*
X139020865Y-110310095D01*
X138599866Y-110193906D01*
X138599854Y-110193903D01*
X138597132Y-110193152D01*
X138594356Y-110192648D01*
X138594342Y-110192645D01*
X138164612Y-110114661D01*
X138164601Y-110114659D01*
X138161832Y-110114157D01*
X138159021Y-110113904D01*
X137724012Y-110074752D01*
X137723996Y-110074751D01*
X137721204Y-110074500D01*
X137278796Y-110074500D01*
X137276004Y-110074751D01*
X137275987Y-110074752D01*
X136840978Y-110113904D01*
X136840975Y-110113904D01*
X136838168Y-110114157D01*
X136835401Y-110114659D01*
X136835387Y-110114661D01*
X136405657Y-110192645D01*
X136405638Y-110192649D01*
X136402868Y-110193152D01*
X136400150Y-110193902D01*
X136400133Y-110193906D01*
X135979134Y-110310095D01*
X135979128Y-110310096D01*
X135976403Y-110310849D01*
X135973771Y-110311836D01*
X135973755Y-110311842D01*
X135564840Y-110465311D01*
X135564826Y-110465316D01*
X135562204Y-110466301D01*
X135163607Y-110658255D01*
X135161186Y-110659701D01*
X135161172Y-110659709D01*
X134786242Y-110883719D01*
X134786224Y-110883730D01*
X134783822Y-110885166D01*
X134781554Y-110886813D01*
X134781537Y-110886825D01*
X134428198Y-111143540D01*
X134428183Y-111143551D01*
X134425905Y-111145207D01*
X134423784Y-111147059D01*
X134423769Y-111147072D01*
X134094872Y-111434422D01*
X134092740Y-111436285D01*
X134090793Y-111438321D01*
X134090784Y-111438330D01*
X133788963Y-111754009D01*
X133788950Y-111754022D01*
X133787007Y-111756056D01*
X133785259Y-111758246D01*
X133785244Y-111758265D01*
X133512933Y-112099734D01*
X133511170Y-112101945D01*
X133509617Y-112104296D01*
X133509608Y-112104310D01*
X133269011Y-112468799D01*
X133269003Y-112468811D01*
X133267448Y-112471168D01*
X133266114Y-112473646D01*
X133266102Y-112473667D01*
X133059147Y-112858256D01*
X133059141Y-112858266D01*
X133057805Y-112860751D01*
X133056702Y-112863329D01*
X133056694Y-112863348D01*
X132885036Y-113264962D01*
X132885028Y-113264981D01*
X132883927Y-113267559D01*
X132883056Y-113270237D01*
X132883052Y-113270250D01*
X132748086Y-113685632D01*
X132748081Y-113685647D01*
X132747215Y-113688315D01*
X132746589Y-113691055D01*
X132746588Y-113691061D01*
X132649398Y-114116877D01*
X132649395Y-114116889D01*
X132648770Y-114119631D01*
X132648391Y-114122425D01*
X132648391Y-114122428D01*
X132589762Y-114555242D01*
X132589760Y-114555255D01*
X132589384Y-114558037D01*
X132589257Y-114560851D01*
X132589257Y-114560858D01*
X132569662Y-114997172D01*
X132569535Y-115000000D01*
X117430465Y-115000000D01*
X117410616Y-114558037D01*
X117351230Y-114119631D01*
X117252785Y-113688315D01*
X117116073Y-113267559D01*
X116942195Y-112860751D01*
X116732552Y-112471168D01*
X116488830Y-112101945D01*
X116212993Y-111756056D01*
X115907260Y-111436285D01*
X115574095Y-111145207D01*
X115280465Y-110931873D01*
X115218462Y-110886825D01*
X115218455Y-110886820D01*
X115216178Y-110885166D01*
X115213765Y-110883724D01*
X115213757Y-110883719D01*
X114838827Y-110659709D01*
X114838822Y-110659706D01*
X114836393Y-110658255D01*
X114437796Y-110466301D01*
X114435165Y-110465313D01*
X114435159Y-110465311D01*
X114026244Y-110311842D01*
X114026235Y-110311839D01*
X114023597Y-110310849D01*
X114020865Y-110310095D01*
X113599866Y-110193906D01*
X113599854Y-110193903D01*
X113597132Y-110193152D01*
X113594356Y-110192648D01*
X113594342Y-110192645D01*
X113164612Y-110114661D01*
X113164601Y-110114659D01*
X113161832Y-110114157D01*
X113159021Y-110113904D01*
X112724012Y-110074752D01*
X112723996Y-110074751D01*
X112721204Y-110074500D01*
X112278796Y-110074500D01*
X112276004Y-110074751D01*
X112275987Y-110074752D01*
X111840978Y-110113904D01*
X111840975Y-110113904D01*
X111838168Y-110114157D01*
X111835401Y-110114659D01*
X111835387Y-110114661D01*
X111405657Y-110192645D01*
X111405638Y-110192649D01*
X111402868Y-110193152D01*
X111400150Y-110193902D01*
X111400133Y-110193906D01*
X110979134Y-110310095D01*
X110979128Y-110310096D01*
X110976403Y-110310849D01*
X110973771Y-110311836D01*
X110973755Y-110311842D01*
X110564840Y-110465311D01*
X110564826Y-110465316D01*
X110562204Y-110466301D01*
X110163607Y-110658255D01*
X110161186Y-110659701D01*
X110161172Y-110659709D01*
X109786242Y-110883719D01*
X109786224Y-110883730D01*
X109783822Y-110885166D01*
X109781554Y-110886813D01*
X109781537Y-110886825D01*
X109428198Y-111143540D01*
X109428183Y-111143551D01*
X109425905Y-111145207D01*
X109423784Y-111147059D01*
X109423769Y-111147072D01*
X109094872Y-111434422D01*
X109092740Y-111436285D01*
X109090793Y-111438321D01*
X109090784Y-111438330D01*
X108788963Y-111754009D01*
X108788950Y-111754022D01*
X108787007Y-111756056D01*
X108785259Y-111758246D01*
X108785244Y-111758265D01*
X108512933Y-112099734D01*
X108511170Y-112101945D01*
X108509617Y-112104296D01*
X108509608Y-112104310D01*
X108269011Y-112468799D01*
X108269003Y-112468811D01*
X108267448Y-112471168D01*
X108266114Y-112473646D01*
X108266102Y-112473667D01*
X108059147Y-112858256D01*
X108059141Y-112858266D01*
X108057805Y-112860751D01*
X108056702Y-112863329D01*
X108056694Y-112863348D01*
X107885036Y-113264962D01*
X107885028Y-113264981D01*
X107883927Y-113267559D01*
X107883056Y-113270237D01*
X107883052Y-113270250D01*
X107748086Y-113685632D01*
X107748081Y-113685647D01*
X107747215Y-113688315D01*
X107746589Y-113691055D01*
X107746588Y-113691061D01*
X107649398Y-114116877D01*
X107649395Y-114116889D01*
X107648770Y-114119631D01*
X107648391Y-114122425D01*
X107648391Y-114122428D01*
X107589762Y-114555242D01*
X107589760Y-114555255D01*
X107589384Y-114558037D01*
X107589257Y-114560851D01*
X107589257Y-114560858D01*
X107569662Y-114997172D01*
X107569535Y-115000000D01*
X100025500Y-115000000D01*
X100025500Y-90000000D01*
X107569535Y-90000000D01*
X107569662Y-90002828D01*
X107589158Y-90436947D01*
X107589384Y-90441963D01*
X107648770Y-90880369D01*
X107747215Y-91311685D01*
X107748083Y-91314358D01*
X107748086Y-91314367D01*
X107883052Y-91729749D01*
X107883927Y-91732441D01*
X107885031Y-91735025D01*
X107885036Y-91735037D01*
X108056694Y-92136651D01*
X108056698Y-92136661D01*
X108057805Y-92139249D01*
X108059146Y-92141741D01*
X108059147Y-92141743D01*
X108266102Y-92526332D01*
X108266108Y-92526343D01*
X108267448Y-92528832D01*
X108269010Y-92531198D01*
X108269011Y-92531200D01*
X108489455Y-92865159D01*
X108511170Y-92898055D01*
X108649088Y-93070999D01*
X108785244Y-93241734D01*
X108785250Y-93241741D01*
X108787007Y-93243944D01*
X109092740Y-93563715D01*
X109425905Y-93854793D01*
X109783822Y-94114834D01*
X110163607Y-94341745D01*
X110562204Y-94533699D01*
X110976403Y-94689151D01*
X111402868Y-94806848D01*
X111838168Y-94885843D01*
X112278796Y-94925500D01*
X112718382Y-94925500D01*
X112721204Y-94925500D01*
X113161832Y-94885843D01*
X113597132Y-94806848D01*
X114023597Y-94689151D01*
X114437796Y-94533699D01*
X114836393Y-94341745D01*
X115216178Y-94114834D01*
X115574095Y-93854793D01*
X115907260Y-93563715D01*
X116212993Y-93243944D01*
X116488830Y-92898055D01*
X116732552Y-92528832D01*
X116942195Y-92139249D01*
X117116073Y-91732441D01*
X117252785Y-91311685D01*
X117351230Y-90880369D01*
X117410616Y-90441963D01*
X117430465Y-90000000D01*
X132569535Y-90000000D01*
X132569662Y-90002828D01*
X132589158Y-90436947D01*
X132589384Y-90441963D01*
X132648770Y-90880369D01*
X132747215Y-91311685D01*
X132748083Y-91314358D01*
X132748086Y-91314367D01*
X132883052Y-91729749D01*
X132883927Y-91732441D01*
X132885031Y-91735025D01*
X132885036Y-91735037D01*
X133056694Y-92136651D01*
X133056698Y-92136661D01*
X133057805Y-92139249D01*
X133059146Y-92141741D01*
X133059147Y-92141743D01*
X133266102Y-92526332D01*
X133266108Y-92526343D01*
X133267448Y-92528832D01*
X133269010Y-92531198D01*
X133269011Y-92531200D01*
X133489455Y-92865159D01*
X133511170Y-92898055D01*
X133649088Y-93070999D01*
X133785244Y-93241734D01*
X133785250Y-93241741D01*
X133787007Y-93243944D01*
X134092740Y-93563715D01*
X134425905Y-93854793D01*
X134783822Y-94114834D01*
X135163607Y-94341745D01*
X135562204Y-94533699D01*
X135976403Y-94689151D01*
X136402868Y-94806848D01*
X136838168Y-94885843D01*
X137278796Y-94925500D01*
X137718382Y-94925500D01*
X137721204Y-94925500D01*
X138161832Y-94885843D01*
X138597132Y-94806848D01*
X139023597Y-94689151D01*
X139437796Y-94533699D01*
X139836393Y-94341745D01*
X140216178Y-94114834D01*
X140574095Y-93854793D01*
X140907260Y-93563715D01*
X141212993Y-93243944D01*
X141488830Y-92898055D01*
X141732552Y-92528832D01*
X141942195Y-92139249D01*
X142116073Y-91732441D01*
X142252785Y-91311685D01*
X142351230Y-90880369D01*
X142410616Y-90441963D01*
X142430465Y-90000000D01*
X142410616Y-89558037D01*
X142351230Y-89119631D01*
X142252785Y-88688315D01*
X142116073Y-88267559D01*
X141942195Y-87860751D01*
X141732552Y-87471168D01*
X141488830Y-87101945D01*
X141212993Y-86756056D01*
X140907260Y-86436285D01*
X140574095Y-86145207D01*
X140280465Y-85931873D01*
X140218462Y-85886825D01*
X140218455Y-85886820D01*
X140216178Y-85885166D01*
X140213765Y-85883724D01*
X140213757Y-85883719D01*
X139838827Y-85659709D01*
X139838822Y-85659706D01*
X139836393Y-85658255D01*
X139437796Y-85466301D01*
X139435165Y-85465313D01*
X139435159Y-85465311D01*
X139026244Y-85311842D01*
X139026235Y-85311839D01*
X139023597Y-85310849D01*
X139020865Y-85310095D01*
X138599866Y-85193906D01*
X138599854Y-85193903D01*
X138597132Y-85193152D01*
X138594356Y-85192648D01*
X138594342Y-85192645D01*
X138164612Y-85114661D01*
X138164601Y-85114659D01*
X138161832Y-85114157D01*
X138159021Y-85113904D01*
X137724012Y-85074752D01*
X137723996Y-85074751D01*
X137721204Y-85074500D01*
X137278796Y-85074500D01*
X137276004Y-85074751D01*
X137275987Y-85074752D01*
X136840978Y-85113904D01*
X136840975Y-85113904D01*
X136838168Y-85114157D01*
X136835401Y-85114659D01*
X136835387Y-85114661D01*
X136405657Y-85192645D01*
X136405638Y-85192649D01*
X136402868Y-85193152D01*
X136400150Y-85193902D01*
X136400133Y-85193906D01*
X135979134Y-85310095D01*
X135979128Y-85310096D01*
X135976403Y-85310849D01*
X135973771Y-85311836D01*
X135973755Y-85311842D01*
X135564840Y-85465311D01*
X135564826Y-85465316D01*
X135562204Y-85466301D01*
X135163607Y-85658255D01*
X135161186Y-85659701D01*
X135161172Y-85659709D01*
X134786242Y-85883719D01*
X134786224Y-85883730D01*
X134783822Y-85885166D01*
X134781554Y-85886813D01*
X134781537Y-85886825D01*
X134428198Y-86143540D01*
X134428183Y-86143551D01*
X134425905Y-86145207D01*
X134423784Y-86147059D01*
X134423769Y-86147072D01*
X134094872Y-86434422D01*
X134092740Y-86436285D01*
X134090793Y-86438321D01*
X134090784Y-86438330D01*
X133788963Y-86754009D01*
X133788950Y-86754022D01*
X133787007Y-86756056D01*
X133785259Y-86758246D01*
X133785244Y-86758265D01*
X133512933Y-87099734D01*
X133511170Y-87101945D01*
X133509617Y-87104296D01*
X133509608Y-87104310D01*
X133269011Y-87468799D01*
X133269003Y-87468811D01*
X133267448Y-87471168D01*
X133266114Y-87473646D01*
X133266102Y-87473667D01*
X133059147Y-87858256D01*
X133059141Y-87858266D01*
X133057805Y-87860751D01*
X133056702Y-87863329D01*
X133056694Y-87863348D01*
X132885036Y-88264962D01*
X132885028Y-88264981D01*
X132883927Y-88267559D01*
X132883056Y-88270237D01*
X132883052Y-88270250D01*
X132748086Y-88685632D01*
X132748081Y-88685647D01*
X132747215Y-88688315D01*
X132746589Y-88691055D01*
X132746588Y-88691061D01*
X132649398Y-89116877D01*
X132649395Y-89116889D01*
X132648770Y-89119631D01*
X132648391Y-89122425D01*
X132648391Y-89122428D01*
X132589762Y-89555242D01*
X132589760Y-89555255D01*
X132589384Y-89558037D01*
X132589257Y-89560851D01*
X132589257Y-89560858D01*
X132569662Y-89997172D01*
X132569535Y-90000000D01*
X117430465Y-90000000D01*
X117410616Y-89558037D01*
X117351230Y-89119631D01*
X117252785Y-88688315D01*
X117116073Y-88267559D01*
X116942195Y-87860751D01*
X116732552Y-87471168D01*
X116488830Y-87101945D01*
X116212993Y-86756056D01*
X115907260Y-86436285D01*
X115574095Y-86145207D01*
X115280465Y-85931873D01*
X115218462Y-85886825D01*
X115218455Y-85886820D01*
X115216178Y-85885166D01*
X115213765Y-85883724D01*
X115213757Y-85883719D01*
X114838827Y-85659709D01*
X114838822Y-85659706D01*
X114836393Y-85658255D01*
X114437796Y-85466301D01*
X114435165Y-85465313D01*
X114435159Y-85465311D01*
X114026244Y-85311842D01*
X114026235Y-85311839D01*
X114023597Y-85310849D01*
X114020865Y-85310095D01*
X113599866Y-85193906D01*
X113599854Y-85193903D01*
X113597132Y-85193152D01*
X113594356Y-85192648D01*
X113594342Y-85192645D01*
X113164612Y-85114661D01*
X113164601Y-85114659D01*
X113161832Y-85114157D01*
X113159021Y-85113904D01*
X112724012Y-85074752D01*
X112723996Y-85074751D01*
X112721204Y-85074500D01*
X112278796Y-85074500D01*
X112276004Y-85074751D01*
X112275987Y-85074752D01*
X111840978Y-85113904D01*
X111840975Y-85113904D01*
X111838168Y-85114157D01*
X111835401Y-85114659D01*
X111835387Y-85114661D01*
X111405657Y-85192645D01*
X111405638Y-85192649D01*
X111402868Y-85193152D01*
X111400150Y-85193902D01*
X111400133Y-85193906D01*
X110979134Y-85310095D01*
X110979128Y-85310096D01*
X110976403Y-85310849D01*
X110973771Y-85311836D01*
X110973755Y-85311842D01*
X110564840Y-85465311D01*
X110564826Y-85465316D01*
X110562204Y-85466301D01*
X110163607Y-85658255D01*
X110161186Y-85659701D01*
X110161172Y-85659709D01*
X109786242Y-85883719D01*
X109786224Y-85883730D01*
X109783822Y-85885166D01*
X109781554Y-85886813D01*
X109781537Y-85886825D01*
X109428198Y-86143540D01*
X109428183Y-86143551D01*
X109425905Y-86145207D01*
X109423784Y-86147059D01*
X109423769Y-86147072D01*
X109094872Y-86434422D01*
X109092740Y-86436285D01*
X109090793Y-86438321D01*
X109090784Y-86438330D01*
X108788963Y-86754009D01*
X108788950Y-86754022D01*
X108787007Y-86756056D01*
X108785259Y-86758246D01*
X108785244Y-86758265D01*
X108512933Y-87099734D01*
X108511170Y-87101945D01*
X108509617Y-87104296D01*
X108509608Y-87104310D01*
X108269011Y-87468799D01*
X108269003Y-87468811D01*
X108267448Y-87471168D01*
X108266114Y-87473646D01*
X108266102Y-87473667D01*
X108059147Y-87858256D01*
X108059141Y-87858266D01*
X108057805Y-87860751D01*
X108056702Y-87863329D01*
X108056694Y-87863348D01*
X107885036Y-88264962D01*
X107885028Y-88264981D01*
X107883927Y-88267559D01*
X107883056Y-88270237D01*
X107883052Y-88270250D01*
X107748086Y-88685632D01*
X107748081Y-88685647D01*
X107747215Y-88688315D01*
X107746589Y-88691055D01*
X107746588Y-88691061D01*
X107649398Y-89116877D01*
X107649395Y-89116889D01*
X107648770Y-89119631D01*
X107648391Y-89122425D01*
X107648391Y-89122428D01*
X107589762Y-89555242D01*
X107589760Y-89555255D01*
X107589384Y-89558037D01*
X107589257Y-89560851D01*
X107589257Y-89560858D01*
X107569662Y-89997172D01*
X107569535Y-90000000D01*
X100025500Y-90000000D01*
X100025500Y-15151500D01*
X100042381Y-15088500D01*
X100088500Y-15042381D01*
X100151500Y-15025500D01*
X149848500Y-15025500D01*
X149911500Y-15042381D01*
G37*
%TD.AperFunction*%
%TD*%
M02*
