%TF.GenerationSoftware,KiCad,Pcbnew,7.0.0-da2b9df05c~163~ubuntu22.04.1*%
%TF.CreationDate,2023-02-21T20:52:04-05:00*%
%TF.ProjectId,multiples_panel,6d756c74-6970-46c6-9573-5f70616e656c,rev?*%
%TF.SameCoordinates,Original*%
%TF.FileFunction,Soldermask,Bot*%
%TF.FilePolarity,Negative*%
%FSLAX46Y46*%
G04 Gerber Fmt 4.6, Leading zero omitted, Abs format (unit mm)*
G04 Created by KiCad (PCBNEW 7.0.0-da2b9df05c~163~ubuntu22.04.1) date 2023-02-21 20:52:04*
%MOMM*%
%LPD*%
G01*
G04 APERTURE LIST*
G04 Aperture macros list*
%AMFreePoly0*
4,1,159,6.626847,7.030287,7.150748,6.971257,7.668773,6.873242,8.178024,6.736788,8.675654,6.562660,9.158880,6.351831,9.625000,6.105479,10.071406,5.824983,10.495603,5.511912,10.895218,5.168016,11.268016,4.795218,11.611912,4.395603,11.924983,3.971406,12.205479,3.525000,12.451831,3.058880,12.662660,2.575654,12.836788,2.078024,12.973242,1.568773,13.071257,1.050748,13.130287,0.526847,
13.150000,0.000000,13.130287,-0.526847,13.071257,-1.050748,12.973242,-1.568773,12.836788,-2.078024,12.662660,-2.575654,12.451831,-3.058880,12.205479,-3.525000,11.924983,-3.971406,11.611912,-4.395603,11.268016,-4.795218,10.895218,-5.168016,10.495603,-5.511912,10.071406,-5.824983,9.625000,-6.105479,9.158880,-6.351831,8.675654,-6.562660,8.178024,-6.736788,7.668773,-6.873242,7.150748,-6.971257,
6.626847,-7.030287,6.100000,-7.050000,5.573153,-7.030287,5.049252,-6.971257,4.531227,-6.873242,4.021976,-6.736788,3.524346,-6.562660,3.041120,-6.351831,2.575000,-6.105479,2.128594,-5.824983,1.704397,-5.511912,1.304782,-5.168016,0.931984,-4.795218,0.588088,-4.395603,0.275017,-3.971406,-0.005479,-3.525000,-0.251831,-3.058880,-0.462660,-2.575654,-0.636788,-2.078024,-0.773242,-1.568773,
-0.871257,-1.050748,-0.930287,-0.526847,-0.950000,0.000000,0.945094,0.000000,0.964710,-0.449280,1.023409,-0.895140,1.120743,-1.334188,1.255973,-1.763082,1.428069,-2.178557,1.635720,-2.577453,1.877348,-2.956733,2.151113,-3.313510,2.454931,-3.645069,2.786490,-3.948887,3.143267,-4.222652,3.522547,-4.464280,3.921443,-4.671931,4.336918,-4.844027,4.765812,-4.979257,5.204860,-5.076591,
5.650720,-5.135290,6.100000,-5.154906,6.549280,-5.135290,6.995140,-5.076591,7.434188,-4.979257,7.863082,-4.844027,8.278557,-4.671931,8.677453,-4.464280,9.056733,-4.222652,9.413510,-3.948887,9.745069,-3.645069,10.048887,-3.313510,10.322652,-2.956733,10.564280,-2.577453,10.771931,-2.178557,10.944027,-1.763082,11.079257,-1.334188,11.176591,-0.895140,11.235290,-0.449280,11.254906,0.000000,
11.235290,0.449280,11.176591,0.895140,11.079257,1.334188,10.944027,1.763082,10.771931,2.178557,10.564280,2.577453,10.322652,2.956733,10.048887,3.313510,9.745069,3.645069,9.413510,3.948887,9.056733,4.222652,8.677453,4.464280,8.278557,4.671931,7.863082,4.844027,7.434188,4.979257,6.995140,5.076591,6.549280,5.135290,6.100000,5.154906,5.650720,5.135290,5.204860,5.076591,
4.765812,4.979257,4.336918,4.844027,3.921443,4.671931,3.522547,4.464280,3.143267,4.222652,2.786490,3.948887,2.454931,3.645069,2.151113,3.313510,1.877348,2.956733,1.635720,2.577453,1.428069,2.178557,1.255973,1.763082,1.120743,1.334188,1.023409,0.895140,0.964710,0.449280,0.945094,0.000000,-0.950000,0.000000,-0.930287,0.526847,-0.871257,1.050748,-0.773242,1.568773,
-0.636788,2.078024,-0.462660,2.575654,-0.251831,3.058880,-0.005479,3.525000,0.275017,3.971406,0.588088,4.395603,0.931984,4.795218,1.304782,5.168016,1.704397,5.511912,2.128594,5.824983,2.575000,6.105479,3.041120,6.351831,3.524346,6.562660,4.021976,6.736788,4.531227,6.873242,5.049252,6.971257,5.573153,7.030287,6.100000,7.050000,6.626847,7.030287,6.626847,7.030287,
$1*%
G04 Aperture macros list end*
%ADD10FreePoly0,0.000000*%
%ADD11C,0.800000*%
%ADD12O,6.800000X4.000000*%
G04 APERTURE END LIST*
D10*
%TO.C,H1*%
X106400000Y-90000000D03*
D11*
X106400000Y-90000000D03*
X108200000Y-85700000D03*
X108200000Y-94300000D03*
X112500000Y-83900000D03*
X112500000Y-96100000D03*
X116700000Y-94400000D03*
X116800000Y-85700000D03*
X118600000Y-90000000D03*
%TD*%
D10*
%TO.C,H2*%
X131400000Y-90000000D03*
D11*
X131400000Y-90000000D03*
X133200000Y-85700000D03*
X133200000Y-94300000D03*
X137500000Y-83900000D03*
X137500000Y-96100000D03*
X141700000Y-94400000D03*
X141800000Y-85700000D03*
X143600000Y-90000000D03*
%TD*%
D12*
%TO.C,H3*%
X104399999Y-17999999D03*
X104399999Y-211999999D03*
%TD*%
D10*
%TO.C,H4*%
X106400000Y-115000000D03*
D11*
X106400000Y-115000000D03*
X108200000Y-110700000D03*
X108200000Y-119300000D03*
X112500000Y-108900000D03*
X112500000Y-121100000D03*
X116700000Y-119400000D03*
X116800000Y-110700000D03*
X118600000Y-115000000D03*
%TD*%
D10*
%TO.C,H5*%
X131400000Y-115000000D03*
D11*
X131400000Y-115000000D03*
X133200000Y-110700000D03*
X133200000Y-119300000D03*
X137500000Y-108900000D03*
X137500000Y-121100000D03*
X141700000Y-119400000D03*
X141800000Y-110700000D03*
X143600000Y-115000000D03*
%TD*%
D12*
%TO.C,H6*%
X145599999Y-211999999D03*
X145599999Y-17999999D03*
%TD*%
D10*
%TO.C,H7*%
X106400000Y-140000000D03*
D11*
X106400000Y-140000000D03*
X108200000Y-135700000D03*
X108200000Y-144300000D03*
X112500000Y-133900000D03*
X112500000Y-146100000D03*
X116700000Y-144400000D03*
X116800000Y-135700000D03*
X118600000Y-140000000D03*
%TD*%
D10*
%TO.C,H8*%
X131400000Y-140000000D03*
D11*
X131400000Y-140000000D03*
X133200000Y-135700000D03*
X133200000Y-144300000D03*
X137500000Y-133900000D03*
X137500000Y-146100000D03*
X141700000Y-144400000D03*
X141800000Y-135700000D03*
X143600000Y-140000000D03*
%TD*%
D10*
%TO.C,H9*%
X106400000Y-165000000D03*
D11*
X106400000Y-165000000D03*
X108200000Y-160700000D03*
X108200000Y-169300000D03*
X112500000Y-158900000D03*
X112500000Y-171100000D03*
X116700000Y-169400000D03*
X116800000Y-160700000D03*
X118600000Y-165000000D03*
%TD*%
D10*
%TO.C,H10*%
X131400000Y-165000000D03*
D11*
X131400000Y-165000000D03*
X133200000Y-160700000D03*
X133200000Y-169300000D03*
X137500000Y-158900000D03*
X137500000Y-171100000D03*
X141700000Y-169400000D03*
X141800000Y-160700000D03*
X143600000Y-165000000D03*
%TD*%
D10*
%TO.C,H11*%
X106400000Y-190000000D03*
D11*
X106400000Y-190000000D03*
X108200000Y-185700000D03*
X108200000Y-194300000D03*
X112500000Y-183900000D03*
X112500000Y-196100000D03*
X116700000Y-194400000D03*
X116800000Y-185700000D03*
X118600000Y-190000000D03*
%TD*%
D10*
%TO.C,H12*%
X131400000Y-190000000D03*
D11*
X131400000Y-190000000D03*
X133200000Y-185700000D03*
X133200000Y-194300000D03*
X137500000Y-183900000D03*
X137500000Y-196100000D03*
X141700000Y-194400000D03*
X141800000Y-185700000D03*
X143600000Y-190000000D03*
%TD*%
M02*
