%TF.GenerationSoftware,KiCad,Pcbnew,7.0.0-da2b9df05c~163~ubuntu22.04.1*%
%TF.CreationDate,2023-02-21T20:52:09-05:00*%
%TF.ProjectId,multiples_panel,6d756c74-6970-46c6-9573-5f70616e656c,rev?*%
%TF.SameCoordinates,Original*%
%TF.FileFunction,Drillmap*%
%TF.FilePolarity,Positive*%
%FSLAX45Y45*%
G04 Gerber Fmt 4.5, Leading zero omitted, Abs format (unit mm)*
G04 Created by KiCad (PCBNEW 7.0.0-da2b9df05c~163~ubuntu22.04.1) date 2023-02-21 20:52:09*
%MOMM*%
%LPD*%
G01*
G04 APERTURE LIST*
%ADD10C,0.050000*%
%ADD11C,0.200000*%
G04 APERTURE END LIST*
D10*
X10000000Y-21500000D02*
X10000000Y-1500000D01*
X15000000Y-21500000D02*
X10000000Y-21500000D01*
X10000000Y-1500000D02*
X15000000Y-1500000D01*
X15000000Y-1500000D02*
X15000000Y-21500000D01*
D11*
X10245119Y-21795976D02*
X10245119Y-21595976D01*
X10245119Y-21595976D02*
X10292738Y-21595976D01*
X10292738Y-21595976D02*
X10321310Y-21605500D01*
X10321310Y-21605500D02*
X10340357Y-21624548D01*
X10340357Y-21624548D02*
X10349881Y-21643595D01*
X10349881Y-21643595D02*
X10359405Y-21681690D01*
X10359405Y-21681690D02*
X10359405Y-21710262D01*
X10359405Y-21710262D02*
X10349881Y-21748357D01*
X10349881Y-21748357D02*
X10340357Y-21767405D01*
X10340357Y-21767405D02*
X10321310Y-21786452D01*
X10321310Y-21786452D02*
X10292738Y-21795976D01*
X10292738Y-21795976D02*
X10245119Y-21795976D01*
X10445119Y-21795976D02*
X10445119Y-21662643D01*
X10445119Y-21700738D02*
X10454643Y-21681690D01*
X10454643Y-21681690D02*
X10464167Y-21672167D01*
X10464167Y-21672167D02*
X10483214Y-21662643D01*
X10483214Y-21662643D02*
X10502262Y-21662643D01*
X10568929Y-21795976D02*
X10568929Y-21662643D01*
X10568929Y-21595976D02*
X10559405Y-21605500D01*
X10559405Y-21605500D02*
X10568929Y-21615024D01*
X10568929Y-21615024D02*
X10578452Y-21605500D01*
X10578452Y-21605500D02*
X10568929Y-21595976D01*
X10568929Y-21595976D02*
X10568929Y-21615024D01*
X10692738Y-21795976D02*
X10673690Y-21786452D01*
X10673690Y-21786452D02*
X10664167Y-21767405D01*
X10664167Y-21767405D02*
X10664167Y-21595976D01*
X10797500Y-21795976D02*
X10778452Y-21786452D01*
X10778452Y-21786452D02*
X10768929Y-21767405D01*
X10768929Y-21767405D02*
X10768929Y-21595976D01*
X10993690Y-21795976D02*
X10993690Y-21595976D01*
X10993690Y-21595976D02*
X11060357Y-21738833D01*
X11060357Y-21738833D02*
X11127024Y-21595976D01*
X11127024Y-21595976D02*
X11127024Y-21795976D01*
X11307976Y-21795976D02*
X11307976Y-21691214D01*
X11307976Y-21691214D02*
X11298452Y-21672167D01*
X11298452Y-21672167D02*
X11279405Y-21662643D01*
X11279405Y-21662643D02*
X11241309Y-21662643D01*
X11241309Y-21662643D02*
X11222262Y-21672167D01*
X11307976Y-21786452D02*
X11288928Y-21795976D01*
X11288928Y-21795976D02*
X11241309Y-21795976D01*
X11241309Y-21795976D02*
X11222262Y-21786452D01*
X11222262Y-21786452D02*
X11212738Y-21767405D01*
X11212738Y-21767405D02*
X11212738Y-21748357D01*
X11212738Y-21748357D02*
X11222262Y-21729310D01*
X11222262Y-21729310D02*
X11241309Y-21719786D01*
X11241309Y-21719786D02*
X11288928Y-21719786D01*
X11288928Y-21719786D02*
X11307976Y-21710262D01*
X11403214Y-21662643D02*
X11403214Y-21862643D01*
X11403214Y-21672167D02*
X11422262Y-21662643D01*
X11422262Y-21662643D02*
X11460357Y-21662643D01*
X11460357Y-21662643D02*
X11479405Y-21672167D01*
X11479405Y-21672167D02*
X11488928Y-21681690D01*
X11488928Y-21681690D02*
X11498452Y-21700738D01*
X11498452Y-21700738D02*
X11498452Y-21757881D01*
X11498452Y-21757881D02*
X11488928Y-21776929D01*
X11488928Y-21776929D02*
X11479405Y-21786452D01*
X11479405Y-21786452D02*
X11460357Y-21795976D01*
X11460357Y-21795976D02*
X11422262Y-21795976D01*
X11422262Y-21795976D02*
X11403214Y-21786452D01*
X11584167Y-21776929D02*
X11593690Y-21786452D01*
X11593690Y-21786452D02*
X11584167Y-21795976D01*
X11584167Y-21795976D02*
X11574643Y-21786452D01*
X11574643Y-21786452D02*
X11584167Y-21776929D01*
X11584167Y-21776929D02*
X11584167Y-21795976D01*
X11584167Y-21672167D02*
X11593690Y-21681690D01*
X11593690Y-21681690D02*
X11584167Y-21691214D01*
X11584167Y-21691214D02*
X11574643Y-21681690D01*
X11574643Y-21681690D02*
X11584167Y-21672167D01*
X11584167Y-21672167D02*
X11584167Y-21691214D01*
M02*
