G04 #@! TF.GenerationSoftware,KiCad,Pcbnew,7.0.0-rc2-unknown-92a61b187f~165~ubuntu22.04.1*
G04 #@! TF.CreationDate,2023-02-10T20:25:43-05:00*
G04 #@! TF.ProjectId,multiples,6d756c74-6970-46c6-9573-2e6b69636164,rev?*
G04 #@! TF.SameCoordinates,Original*
G04 #@! TF.FileFunction,Legend,Top*
G04 #@! TF.FilePolarity,Positive*
%FSLAX46Y46*%
G04 Gerber Fmt 4.6, Leading zero omitted, Abs format (unit mm)*
G04 Created by KiCad (PCBNEW 7.0.0-rc2-unknown-92a61b187f~165~ubuntu22.04.1) date 2023-02-10 20:25:43*
%MOMM*%
%LPD*%
G01*
G04 APERTURE LIST*
%ADD10C,0.150000*%
%ADD11C,0.120000*%
G04 APERTURE END LIST*
D10*
G04 #@! TO.C,J8*
X221525535Y-138249999D02*
X222061250Y-138249999D01*
X222061250Y-138249999D02*
X222168392Y-138285714D01*
X222168392Y-138285714D02*
X222239821Y-138357142D01*
X222239821Y-138357142D02*
X222275535Y-138464285D01*
X222275535Y-138464285D02*
X222275535Y-138535714D01*
X221846964Y-137785713D02*
X221811250Y-137857142D01*
X221811250Y-137857142D02*
X221775535Y-137892856D01*
X221775535Y-137892856D02*
X221704107Y-137928570D01*
X221704107Y-137928570D02*
X221668392Y-137928570D01*
X221668392Y-137928570D02*
X221596964Y-137892856D01*
X221596964Y-137892856D02*
X221561250Y-137857142D01*
X221561250Y-137857142D02*
X221525535Y-137785713D01*
X221525535Y-137785713D02*
X221525535Y-137642856D01*
X221525535Y-137642856D02*
X221561250Y-137571428D01*
X221561250Y-137571428D02*
X221596964Y-137535713D01*
X221596964Y-137535713D02*
X221668392Y-137499999D01*
X221668392Y-137499999D02*
X221704107Y-137499999D01*
X221704107Y-137499999D02*
X221775535Y-137535713D01*
X221775535Y-137535713D02*
X221811250Y-137571428D01*
X221811250Y-137571428D02*
X221846964Y-137642856D01*
X221846964Y-137642856D02*
X221846964Y-137785713D01*
X221846964Y-137785713D02*
X221882678Y-137857142D01*
X221882678Y-137857142D02*
X221918392Y-137892856D01*
X221918392Y-137892856D02*
X221989821Y-137928570D01*
X221989821Y-137928570D02*
X222132678Y-137928570D01*
X222132678Y-137928570D02*
X222204107Y-137892856D01*
X222204107Y-137892856D02*
X222239821Y-137857142D01*
X222239821Y-137857142D02*
X222275535Y-137785713D01*
X222275535Y-137785713D02*
X222275535Y-137642856D01*
X222275535Y-137642856D02*
X222239821Y-137571428D01*
X222239821Y-137571428D02*
X222204107Y-137535713D01*
X222204107Y-137535713D02*
X222132678Y-137499999D01*
X222132678Y-137499999D02*
X221989821Y-137499999D01*
X221989821Y-137499999D02*
X221918392Y-137535713D01*
X221918392Y-137535713D02*
X221882678Y-137571428D01*
X221882678Y-137571428D02*
X221846964Y-137642856D01*
G04 #@! TO.C,J7*
X221525535Y-113249999D02*
X222061250Y-113249999D01*
X222061250Y-113249999D02*
X222168392Y-113285714D01*
X222168392Y-113285714D02*
X222239821Y-113357142D01*
X222239821Y-113357142D02*
X222275535Y-113464285D01*
X222275535Y-113464285D02*
X222275535Y-113535714D01*
X221525535Y-112964285D02*
X221525535Y-112464285D01*
X221525535Y-112464285D02*
X222275535Y-112785713D01*
G04 #@! TO.C,J5*
X196525535Y-188249999D02*
X197061250Y-188249999D01*
X197061250Y-188249999D02*
X197168392Y-188285714D01*
X197168392Y-188285714D02*
X197239821Y-188357142D01*
X197239821Y-188357142D02*
X197275535Y-188464285D01*
X197275535Y-188464285D02*
X197275535Y-188535714D01*
X196525535Y-187535713D02*
X196525535Y-187892856D01*
X196525535Y-187892856D02*
X196882678Y-187928570D01*
X196882678Y-187928570D02*
X196846964Y-187892856D01*
X196846964Y-187892856D02*
X196811250Y-187821428D01*
X196811250Y-187821428D02*
X196811250Y-187642856D01*
X196811250Y-187642856D02*
X196846964Y-187571428D01*
X196846964Y-187571428D02*
X196882678Y-187535713D01*
X196882678Y-187535713D02*
X196954107Y-187499999D01*
X196954107Y-187499999D02*
X197132678Y-187499999D01*
X197132678Y-187499999D02*
X197204107Y-187535713D01*
X197204107Y-187535713D02*
X197239821Y-187571428D01*
X197239821Y-187571428D02*
X197275535Y-187642856D01*
X197275535Y-187642856D02*
X197275535Y-187821428D01*
X197275535Y-187821428D02*
X197239821Y-187892856D01*
X197239821Y-187892856D02*
X197204107Y-187928570D01*
G04 #@! TO.C,TP3*
X210063571Y-51900535D02*
X210492143Y-51900535D01*
X210277857Y-52650535D02*
X210277857Y-51900535D01*
X210742143Y-52650535D02*
X210742143Y-51900535D01*
X210742143Y-51900535D02*
X211027857Y-51900535D01*
X211027857Y-51900535D02*
X211099286Y-51936250D01*
X211099286Y-51936250D02*
X211135000Y-51971964D01*
X211135000Y-51971964D02*
X211170714Y-52043392D01*
X211170714Y-52043392D02*
X211170714Y-52150535D01*
X211170714Y-52150535D02*
X211135000Y-52221964D01*
X211135000Y-52221964D02*
X211099286Y-52257678D01*
X211099286Y-52257678D02*
X211027857Y-52293392D01*
X211027857Y-52293392D02*
X210742143Y-52293392D01*
X211420714Y-51900535D02*
X211885000Y-51900535D01*
X211885000Y-51900535D02*
X211635000Y-52186250D01*
X211635000Y-52186250D02*
X211742143Y-52186250D01*
X211742143Y-52186250D02*
X211813572Y-52221964D01*
X211813572Y-52221964D02*
X211849286Y-52257678D01*
X211849286Y-52257678D02*
X211885000Y-52329107D01*
X211885000Y-52329107D02*
X211885000Y-52507678D01*
X211885000Y-52507678D02*
X211849286Y-52579107D01*
X211849286Y-52579107D02*
X211813572Y-52614821D01*
X211813572Y-52614821D02*
X211742143Y-52650535D01*
X211742143Y-52650535D02*
X211527857Y-52650535D01*
X211527857Y-52650535D02*
X211456429Y-52614821D01*
X211456429Y-52614821D02*
X211420714Y-52579107D01*
X210438571Y-50920250D02*
X210367143Y-50884535D01*
X210367143Y-50884535D02*
X210260000Y-50884535D01*
X210260000Y-50884535D02*
X210152857Y-50920250D01*
X210152857Y-50920250D02*
X210081428Y-50991678D01*
X210081428Y-50991678D02*
X210045714Y-51063107D01*
X210045714Y-51063107D02*
X210010000Y-51205964D01*
X210010000Y-51205964D02*
X210010000Y-51313107D01*
X210010000Y-51313107D02*
X210045714Y-51455964D01*
X210045714Y-51455964D02*
X210081428Y-51527392D01*
X210081428Y-51527392D02*
X210152857Y-51598821D01*
X210152857Y-51598821D02*
X210260000Y-51634535D01*
X210260000Y-51634535D02*
X210331428Y-51634535D01*
X210331428Y-51634535D02*
X210438571Y-51598821D01*
X210438571Y-51598821D02*
X210474285Y-51563107D01*
X210474285Y-51563107D02*
X210474285Y-51313107D01*
X210474285Y-51313107D02*
X210331428Y-51313107D01*
X210795714Y-51634535D02*
X210795714Y-50884535D01*
X210795714Y-50884535D02*
X211224285Y-51634535D01*
X211224285Y-51634535D02*
X211224285Y-50884535D01*
X211581428Y-51634535D02*
X211581428Y-50884535D01*
X211581428Y-50884535D02*
X211759999Y-50884535D01*
X211759999Y-50884535D02*
X211867142Y-50920250D01*
X211867142Y-50920250D02*
X211938571Y-50991678D01*
X211938571Y-50991678D02*
X211974285Y-51063107D01*
X211974285Y-51063107D02*
X212009999Y-51205964D01*
X212009999Y-51205964D02*
X212009999Y-51313107D01*
X212009999Y-51313107D02*
X211974285Y-51455964D01*
X211974285Y-51455964D02*
X211938571Y-51527392D01*
X211938571Y-51527392D02*
X211867142Y-51598821D01*
X211867142Y-51598821D02*
X211759999Y-51634535D01*
X211759999Y-51634535D02*
X211581428Y-51634535D01*
G04 #@! TO.C,TP2*
X203193571Y-51900535D02*
X203622143Y-51900535D01*
X203407857Y-52650535D02*
X203407857Y-51900535D01*
X203872143Y-52650535D02*
X203872143Y-51900535D01*
X203872143Y-51900535D02*
X204157857Y-51900535D01*
X204157857Y-51900535D02*
X204229286Y-51936250D01*
X204229286Y-51936250D02*
X204265000Y-51971964D01*
X204265000Y-51971964D02*
X204300714Y-52043392D01*
X204300714Y-52043392D02*
X204300714Y-52150535D01*
X204300714Y-52150535D02*
X204265000Y-52221964D01*
X204265000Y-52221964D02*
X204229286Y-52257678D01*
X204229286Y-52257678D02*
X204157857Y-52293392D01*
X204157857Y-52293392D02*
X203872143Y-52293392D01*
X204586429Y-51971964D02*
X204622143Y-51936250D01*
X204622143Y-51936250D02*
X204693572Y-51900535D01*
X204693572Y-51900535D02*
X204872143Y-51900535D01*
X204872143Y-51900535D02*
X204943572Y-51936250D01*
X204943572Y-51936250D02*
X204979286Y-51971964D01*
X204979286Y-51971964D02*
X205015000Y-52043392D01*
X205015000Y-52043392D02*
X205015000Y-52114821D01*
X205015000Y-52114821D02*
X204979286Y-52221964D01*
X204979286Y-52221964D02*
X204550714Y-52650535D01*
X204550714Y-52650535D02*
X205015000Y-52650535D01*
X202818571Y-51348821D02*
X203390000Y-51348821D01*
X203104285Y-51634535D02*
X203104285Y-51063107D01*
X204139999Y-51634535D02*
X203711428Y-51634535D01*
X203925713Y-51634535D02*
X203925713Y-50884535D01*
X203925713Y-50884535D02*
X203854285Y-50991678D01*
X203854285Y-50991678D02*
X203782856Y-51063107D01*
X203782856Y-51063107D02*
X203711428Y-51098821D01*
X204425714Y-50955964D02*
X204461428Y-50920250D01*
X204461428Y-50920250D02*
X204532857Y-50884535D01*
X204532857Y-50884535D02*
X204711428Y-50884535D01*
X204711428Y-50884535D02*
X204782857Y-50920250D01*
X204782857Y-50920250D02*
X204818571Y-50955964D01*
X204818571Y-50955964D02*
X204854285Y-51027392D01*
X204854285Y-51027392D02*
X204854285Y-51098821D01*
X204854285Y-51098821D02*
X204818571Y-51205964D01*
X204818571Y-51205964D02*
X204389999Y-51634535D01*
X204389999Y-51634535D02*
X204854285Y-51634535D01*
X205068571Y-50884535D02*
X205318571Y-51634535D01*
X205318571Y-51634535D02*
X205568571Y-50884535D01*
G04 #@! TO.C,J9*
X221525535Y-163249999D02*
X222061250Y-163249999D01*
X222061250Y-163249999D02*
X222168392Y-163285714D01*
X222168392Y-163285714D02*
X222239821Y-163357142D01*
X222239821Y-163357142D02*
X222275535Y-163464285D01*
X222275535Y-163464285D02*
X222275535Y-163535714D01*
X222275535Y-162857142D02*
X222275535Y-162714285D01*
X222275535Y-162714285D02*
X222239821Y-162642856D01*
X222239821Y-162642856D02*
X222204107Y-162607142D01*
X222204107Y-162607142D02*
X222096964Y-162535713D01*
X222096964Y-162535713D02*
X221954107Y-162499999D01*
X221954107Y-162499999D02*
X221668392Y-162499999D01*
X221668392Y-162499999D02*
X221596964Y-162535713D01*
X221596964Y-162535713D02*
X221561250Y-162571428D01*
X221561250Y-162571428D02*
X221525535Y-162642856D01*
X221525535Y-162642856D02*
X221525535Y-162785713D01*
X221525535Y-162785713D02*
X221561250Y-162857142D01*
X221561250Y-162857142D02*
X221596964Y-162892856D01*
X221596964Y-162892856D02*
X221668392Y-162928570D01*
X221668392Y-162928570D02*
X221846964Y-162928570D01*
X221846964Y-162928570D02*
X221918392Y-162892856D01*
X221918392Y-162892856D02*
X221954107Y-162857142D01*
X221954107Y-162857142D02*
X221989821Y-162785713D01*
X221989821Y-162785713D02*
X221989821Y-162642856D01*
X221989821Y-162642856D02*
X221954107Y-162571428D01*
X221954107Y-162571428D02*
X221918392Y-162535713D01*
X221918392Y-162535713D02*
X221846964Y-162499999D01*
G04 #@! TO.C,J4*
X196525535Y-163249999D02*
X197061250Y-163249999D01*
X197061250Y-163249999D02*
X197168392Y-163285714D01*
X197168392Y-163285714D02*
X197239821Y-163357142D01*
X197239821Y-163357142D02*
X197275535Y-163464285D01*
X197275535Y-163464285D02*
X197275535Y-163535714D01*
X196775535Y-162571428D02*
X197275535Y-162571428D01*
X196489821Y-162749999D02*
X197025535Y-162928570D01*
X197025535Y-162928570D02*
X197025535Y-162464285D01*
G04 #@! TO.C,J3*
X196525535Y-138249999D02*
X197061250Y-138249999D01*
X197061250Y-138249999D02*
X197168392Y-138285714D01*
X197168392Y-138285714D02*
X197239821Y-138357142D01*
X197239821Y-138357142D02*
X197275535Y-138464285D01*
X197275535Y-138464285D02*
X197275535Y-138535714D01*
X196525535Y-137964285D02*
X196525535Y-137499999D01*
X196525535Y-137499999D02*
X196811250Y-137749999D01*
X196811250Y-137749999D02*
X196811250Y-137642856D01*
X196811250Y-137642856D02*
X196846964Y-137571428D01*
X196846964Y-137571428D02*
X196882678Y-137535713D01*
X196882678Y-137535713D02*
X196954107Y-137499999D01*
X196954107Y-137499999D02*
X197132678Y-137499999D01*
X197132678Y-137499999D02*
X197204107Y-137535713D01*
X197204107Y-137535713D02*
X197239821Y-137571428D01*
X197239821Y-137571428D02*
X197275535Y-137642856D01*
X197275535Y-137642856D02*
X197275535Y-137857142D01*
X197275535Y-137857142D02*
X197239821Y-137928570D01*
X197239821Y-137928570D02*
X197204107Y-137964285D01*
G04 #@! TO.C,J10*
X221525535Y-188607142D02*
X222061250Y-188607142D01*
X222061250Y-188607142D02*
X222168392Y-188642857D01*
X222168392Y-188642857D02*
X222239821Y-188714285D01*
X222239821Y-188714285D02*
X222275535Y-188821428D01*
X222275535Y-188821428D02*
X222275535Y-188892857D01*
X222275535Y-187857142D02*
X222275535Y-188285713D01*
X222275535Y-188071428D02*
X221525535Y-188071428D01*
X221525535Y-188071428D02*
X221632678Y-188142856D01*
X221632678Y-188142856D02*
X221704107Y-188214285D01*
X221704107Y-188214285D02*
X221739821Y-188285713D01*
X221525535Y-187392856D02*
X221525535Y-187321427D01*
X221525535Y-187321427D02*
X221561250Y-187249999D01*
X221561250Y-187249999D02*
X221596964Y-187214285D01*
X221596964Y-187214285D02*
X221668392Y-187178570D01*
X221668392Y-187178570D02*
X221811250Y-187142856D01*
X221811250Y-187142856D02*
X221989821Y-187142856D01*
X221989821Y-187142856D02*
X222132678Y-187178570D01*
X222132678Y-187178570D02*
X222204107Y-187214285D01*
X222204107Y-187214285D02*
X222239821Y-187249999D01*
X222239821Y-187249999D02*
X222275535Y-187321427D01*
X222275535Y-187321427D02*
X222275535Y-187392856D01*
X222275535Y-187392856D02*
X222239821Y-187464285D01*
X222239821Y-187464285D02*
X222204107Y-187499999D01*
X222204107Y-187499999D02*
X222132678Y-187535713D01*
X222132678Y-187535713D02*
X221989821Y-187571427D01*
X221989821Y-187571427D02*
X221811250Y-187571427D01*
X221811250Y-187571427D02*
X221668392Y-187535713D01*
X221668392Y-187535713D02*
X221596964Y-187499999D01*
X221596964Y-187499999D02*
X221561250Y-187464285D01*
X221561250Y-187464285D02*
X221525535Y-187392856D01*
G04 #@! TO.C,J6*
X196525535Y-213249999D02*
X197061250Y-213249999D01*
X197061250Y-213249999D02*
X197168392Y-213285714D01*
X197168392Y-213285714D02*
X197239821Y-213357142D01*
X197239821Y-213357142D02*
X197275535Y-213464285D01*
X197275535Y-213464285D02*
X197275535Y-213535714D01*
X196525535Y-212571428D02*
X196525535Y-212714285D01*
X196525535Y-212714285D02*
X196561250Y-212785713D01*
X196561250Y-212785713D02*
X196596964Y-212821428D01*
X196596964Y-212821428D02*
X196704107Y-212892856D01*
X196704107Y-212892856D02*
X196846964Y-212928570D01*
X196846964Y-212928570D02*
X197132678Y-212928570D01*
X197132678Y-212928570D02*
X197204107Y-212892856D01*
X197204107Y-212892856D02*
X197239821Y-212857142D01*
X197239821Y-212857142D02*
X197275535Y-212785713D01*
X197275535Y-212785713D02*
X197275535Y-212642856D01*
X197275535Y-212642856D02*
X197239821Y-212571428D01*
X197239821Y-212571428D02*
X197204107Y-212535713D01*
X197204107Y-212535713D02*
X197132678Y-212499999D01*
X197132678Y-212499999D02*
X196954107Y-212499999D01*
X196954107Y-212499999D02*
X196882678Y-212535713D01*
X196882678Y-212535713D02*
X196846964Y-212571428D01*
X196846964Y-212571428D02*
X196811250Y-212642856D01*
X196811250Y-212642856D02*
X196811250Y-212785713D01*
X196811250Y-212785713D02*
X196846964Y-212857142D01*
X196846964Y-212857142D02*
X196882678Y-212892856D01*
X196882678Y-212892856D02*
X196954107Y-212928570D01*
G04 #@! TO.C,TP1*
X217163571Y-51900535D02*
X217592143Y-51900535D01*
X217377857Y-52650535D02*
X217377857Y-51900535D01*
X217842143Y-52650535D02*
X217842143Y-51900535D01*
X217842143Y-51900535D02*
X218127857Y-51900535D01*
X218127857Y-51900535D02*
X218199286Y-51936250D01*
X218199286Y-51936250D02*
X218235000Y-51971964D01*
X218235000Y-51971964D02*
X218270714Y-52043392D01*
X218270714Y-52043392D02*
X218270714Y-52150535D01*
X218270714Y-52150535D02*
X218235000Y-52221964D01*
X218235000Y-52221964D02*
X218199286Y-52257678D01*
X218199286Y-52257678D02*
X218127857Y-52293392D01*
X218127857Y-52293392D02*
X217842143Y-52293392D01*
X218985000Y-52650535D02*
X218556429Y-52650535D01*
X218770714Y-52650535D02*
X218770714Y-51900535D01*
X218770714Y-51900535D02*
X218699286Y-52007678D01*
X218699286Y-52007678D02*
X218627857Y-52079107D01*
X218627857Y-52079107D02*
X218556429Y-52114821D01*
X216788571Y-51348821D02*
X217360000Y-51348821D01*
X218109999Y-51634535D02*
X217681428Y-51634535D01*
X217895713Y-51634535D02*
X217895713Y-50884535D01*
X217895713Y-50884535D02*
X217824285Y-50991678D01*
X217824285Y-50991678D02*
X217752856Y-51063107D01*
X217752856Y-51063107D02*
X217681428Y-51098821D01*
X218395714Y-50955964D02*
X218431428Y-50920250D01*
X218431428Y-50920250D02*
X218502857Y-50884535D01*
X218502857Y-50884535D02*
X218681428Y-50884535D01*
X218681428Y-50884535D02*
X218752857Y-50920250D01*
X218752857Y-50920250D02*
X218788571Y-50955964D01*
X218788571Y-50955964D02*
X218824285Y-51027392D01*
X218824285Y-51027392D02*
X218824285Y-51098821D01*
X218824285Y-51098821D02*
X218788571Y-51205964D01*
X218788571Y-51205964D02*
X218359999Y-51634535D01*
X218359999Y-51634535D02*
X218824285Y-51634535D01*
X219038571Y-50884535D02*
X219288571Y-51634535D01*
X219288571Y-51634535D02*
X219538571Y-50884535D01*
G04 #@! TO.C,J11*
X221525535Y-213607142D02*
X222061250Y-213607142D01*
X222061250Y-213607142D02*
X222168392Y-213642857D01*
X222168392Y-213642857D02*
X222239821Y-213714285D01*
X222239821Y-213714285D02*
X222275535Y-213821428D01*
X222275535Y-213821428D02*
X222275535Y-213892857D01*
X222275535Y-212857142D02*
X222275535Y-213285713D01*
X222275535Y-213071428D02*
X221525535Y-213071428D01*
X221525535Y-213071428D02*
X221632678Y-213142856D01*
X221632678Y-213142856D02*
X221704107Y-213214285D01*
X221704107Y-213214285D02*
X221739821Y-213285713D01*
X222275535Y-212142856D02*
X222275535Y-212571427D01*
X222275535Y-212357142D02*
X221525535Y-212357142D01*
X221525535Y-212357142D02*
X221632678Y-212428570D01*
X221632678Y-212428570D02*
X221704107Y-212499999D01*
X221704107Y-212499999D02*
X221739821Y-212571427D01*
G04 #@! TO.C,J2*
X196525535Y-113249999D02*
X197061250Y-113249999D01*
X197061250Y-113249999D02*
X197168392Y-113285714D01*
X197168392Y-113285714D02*
X197239821Y-113357142D01*
X197239821Y-113357142D02*
X197275535Y-113464285D01*
X197275535Y-113464285D02*
X197275535Y-113535714D01*
X196596964Y-112928570D02*
X196561250Y-112892856D01*
X196561250Y-112892856D02*
X196525535Y-112821428D01*
X196525535Y-112821428D02*
X196525535Y-112642856D01*
X196525535Y-112642856D02*
X196561250Y-112571428D01*
X196561250Y-112571428D02*
X196596964Y-112535713D01*
X196596964Y-112535713D02*
X196668392Y-112499999D01*
X196668392Y-112499999D02*
X196739821Y-112499999D01*
X196739821Y-112499999D02*
X196846964Y-112535713D01*
X196846964Y-112535713D02*
X197275535Y-112964285D01*
X197275535Y-112964285D02*
X197275535Y-112499999D01*
D11*
G04 #@! TO.C,J8*
X220400000Y-130100000D02*
X220400000Y-136500000D01*
X214000000Y-130100000D02*
X220400000Y-130100000D01*
X204650000Y-130100000D02*
X210000000Y-130100000D01*
X204650000Y-133500000D02*
X204650000Y-130100000D01*
X220400000Y-140500000D02*
X220400000Y-145850000D01*
X204650000Y-143350000D02*
X204650000Y-137500000D01*
X220400000Y-145850000D02*
X217200000Y-145850000D01*
X212900000Y-145850000D02*
X206700000Y-145850000D01*
X206700000Y-145850000D02*
X206650000Y-145850000D01*
X206650000Y-145850000D02*
X204650000Y-143350000D01*
G04 #@! TO.C,J7*
X220400000Y-105100000D02*
X220400000Y-111500000D01*
X214000000Y-105100000D02*
X220400000Y-105100000D01*
X204650000Y-105100000D02*
X210000000Y-105100000D01*
X204650000Y-108500000D02*
X204650000Y-105100000D01*
X220400000Y-115500000D02*
X220400000Y-120850000D01*
X204650000Y-118350000D02*
X204650000Y-112500000D01*
X220400000Y-120850000D02*
X217200000Y-120850000D01*
X212900000Y-120850000D02*
X206700000Y-120850000D01*
X206700000Y-120850000D02*
X206650000Y-120850000D01*
X206650000Y-120850000D02*
X204650000Y-118350000D01*
G04 #@! TO.C,J5*
X195400000Y-180100000D02*
X195400000Y-186500000D01*
X189000000Y-180100000D02*
X195400000Y-180100000D01*
X179650000Y-180100000D02*
X185000000Y-180100000D01*
X179650000Y-183500000D02*
X179650000Y-180100000D01*
X195400000Y-190500000D02*
X195400000Y-195850000D01*
X179650000Y-193350000D02*
X179650000Y-187500000D01*
X195400000Y-195850000D02*
X192200000Y-195850000D01*
X187900000Y-195850000D02*
X181700000Y-195850000D01*
X181700000Y-195850000D02*
X181650000Y-195850000D01*
X181650000Y-195850000D02*
X179650000Y-193350000D01*
G04 #@! TO.C,TP3*
X214500000Y-51740000D02*
G75*
G03*
X214500000Y-51740000I-950000J0D01*
G01*
G04 #@! TO.C,TP2*
X207630000Y-51740000D02*
G75*
G03*
X207630000Y-51740000I-950000J0D01*
G01*
G04 #@! TO.C,J9*
X220400000Y-155100000D02*
X220400000Y-161500000D01*
X214000000Y-155100000D02*
X220400000Y-155100000D01*
X204650000Y-155100000D02*
X210000000Y-155100000D01*
X204650000Y-158500000D02*
X204650000Y-155100000D01*
X220400000Y-165500000D02*
X220400000Y-170850000D01*
X204650000Y-168350000D02*
X204650000Y-162500000D01*
X220400000Y-170850000D02*
X217200000Y-170850000D01*
X212900000Y-170850000D02*
X206700000Y-170850000D01*
X206700000Y-170850000D02*
X206650000Y-170850000D01*
X206650000Y-170850000D02*
X204650000Y-168350000D01*
G04 #@! TO.C,J4*
X195400000Y-155100000D02*
X195400000Y-161500000D01*
X189000000Y-155100000D02*
X195400000Y-155100000D01*
X179650000Y-155100000D02*
X185000000Y-155100000D01*
X179650000Y-158500000D02*
X179650000Y-155100000D01*
X195400000Y-165500000D02*
X195400000Y-170850000D01*
X179650000Y-168350000D02*
X179650000Y-162500000D01*
X195400000Y-170850000D02*
X192200000Y-170850000D01*
X187900000Y-170850000D02*
X181700000Y-170850000D01*
X181700000Y-170850000D02*
X181650000Y-170850000D01*
X181650000Y-170850000D02*
X179650000Y-168350000D01*
G04 #@! TO.C,J3*
X195400000Y-130100000D02*
X195400000Y-136500000D01*
X189000000Y-130100000D02*
X195400000Y-130100000D01*
X179650000Y-130100000D02*
X185000000Y-130100000D01*
X179650000Y-133500000D02*
X179650000Y-130100000D01*
X195400000Y-140500000D02*
X195400000Y-145850000D01*
X179650000Y-143350000D02*
X179650000Y-137500000D01*
X195400000Y-145850000D02*
X192200000Y-145850000D01*
X187900000Y-145850000D02*
X181700000Y-145850000D01*
X181700000Y-145850000D02*
X181650000Y-145850000D01*
X181650000Y-145850000D02*
X179650000Y-143350000D01*
G04 #@! TO.C,J10*
X220400000Y-180100000D02*
X220400000Y-186500000D01*
X214000000Y-180100000D02*
X220400000Y-180100000D01*
X204650000Y-180100000D02*
X210000000Y-180100000D01*
X204650000Y-183500000D02*
X204650000Y-180100000D01*
X220400000Y-190500000D02*
X220400000Y-195850000D01*
X204650000Y-193350000D02*
X204650000Y-187500000D01*
X220400000Y-195850000D02*
X217200000Y-195850000D01*
X212900000Y-195850000D02*
X206700000Y-195850000D01*
X206700000Y-195850000D02*
X206650000Y-195850000D01*
X206650000Y-195850000D02*
X204650000Y-193350000D01*
G04 #@! TO.C,J6*
X195400000Y-205100000D02*
X195400000Y-211500000D01*
X189000000Y-205100000D02*
X195400000Y-205100000D01*
X179650000Y-205100000D02*
X185000000Y-205100000D01*
X179650000Y-208500000D02*
X179650000Y-205100000D01*
X195400000Y-215500000D02*
X195400000Y-220850000D01*
X179650000Y-218350000D02*
X179650000Y-212500000D01*
X195400000Y-220850000D02*
X192200000Y-220850000D01*
X187900000Y-220850000D02*
X181700000Y-220850000D01*
X181700000Y-220850000D02*
X181650000Y-220850000D01*
X181650000Y-220850000D02*
X179650000Y-218350000D01*
G04 #@! TO.C,TP1*
X221600000Y-51740000D02*
G75*
G03*
X221600000Y-51740000I-950000J0D01*
G01*
G04 #@! TO.C,J11*
X220400000Y-205100000D02*
X220400000Y-211500000D01*
X214000000Y-205100000D02*
X220400000Y-205100000D01*
X204650000Y-205100000D02*
X210000000Y-205100000D01*
X204650000Y-208500000D02*
X204650000Y-205100000D01*
X220400000Y-215500000D02*
X220400000Y-220850000D01*
X204650000Y-218350000D02*
X204650000Y-212500000D01*
X220400000Y-220850000D02*
X217200000Y-220850000D01*
X212900000Y-220850000D02*
X206700000Y-220850000D01*
X206700000Y-220850000D02*
X206650000Y-220850000D01*
X206650000Y-220850000D02*
X204650000Y-218350000D01*
G04 #@! TO.C,J2*
X195400000Y-105100000D02*
X195400000Y-111500000D01*
X189000000Y-105100000D02*
X195400000Y-105100000D01*
X179650000Y-105100000D02*
X185000000Y-105100000D01*
X179650000Y-108500000D02*
X179650000Y-105100000D01*
X195400000Y-115500000D02*
X195400000Y-120850000D01*
X179650000Y-118350000D02*
X179650000Y-112500000D01*
X195400000Y-120850000D02*
X192200000Y-120850000D01*
X187900000Y-120850000D02*
X181700000Y-120850000D01*
X181700000Y-120850000D02*
X181650000Y-120850000D01*
X181650000Y-120850000D02*
X179650000Y-118350000D01*
G04 #@! TD*
M02*
