M48
; DRILL file {KiCad 7.0.0-rc2-unknown-92a61b187f~165~ubuntu22.04.1} date Fri Feb 10 20:25:43 2023
; FORMAT={-:-/ absolute / metric / decimal}
; #@! TF.CreationDate,2023-02-10T20:25:43-05:00
; #@! TF.GenerationSoftware,Kicad,Pcbnew,7.0.0-rc2-unknown-92a61b187f~165~ubuntu22.04.1
; #@! TF.FileFunction,MixedPlating,1,2
FMAT,2
METRIC
; #@! TA.AperFunction,Plated,PTH,ComponentDrill
T1C0.700
; #@! TA.AperFunction,Plated,PTH,ComponentDrill
T2C0.800
; #@! TA.AperFunction,Plated,PTH,ComponentDrill
T3C1.000
; #@! TA.AperFunction,Plated,PTH,ComponentDrill
T4C1.016
; #@! TA.AperFunction,Plated,PTH,ComponentDrill
T5C1.100
%
G90
G05
T1
X206.68Y-51.74
X213.55Y-51.74
X220.65Y-51.74
T2
X179.14Y-63.4
X179.14Y-73.56
X179.14Y-78.64
X179.14Y-86.26
X179.14Y-91.34
X179.14Y-101.5
X181.68Y-78.64
X181.68Y-86.26
X182.95Y-71.02
X182.95Y-73.52
X184.22Y-78.64
X184.22Y-86.26
X184.22Y-91.34
X184.22Y-93.84
X186.76Y-63.4
X186.76Y-73.56
X186.76Y-78.64
X186.76Y-86.26
X188.03Y-55.78
X188.03Y-58.28
X189.3Y-78.64
X189.3Y-86.26
X189.3Y-91.34
X189.3Y-101.5
X191.84Y-78.64
X191.84Y-86.26
X194.38Y-78.64
X194.38Y-86.26
X194.38Y-91.34
X194.38Y-101.5
X204.54Y-78.64
X204.54Y-86.26
X204.54Y-91.34
X204.54Y-101.5
X207.08Y-78.64
X207.08Y-86.26
X209.62Y-78.64
X209.62Y-86.26
X209.62Y-91.34
X209.62Y-101.5
X210.89Y-55.82
X210.89Y-58.32
X212.16Y-63.4
X212.16Y-73.56
X212.16Y-78.64
X212.16Y-86.26
X214.7Y-78.64
X214.7Y-86.26
X214.7Y-91.34
X214.7Y-93.84
X215.97Y-71.06
X215.97Y-73.56
X217.24Y-78.64
X217.24Y-86.26
X219.78Y-63.4
X219.78Y-73.56
X219.78Y-78.64
X219.78Y-86.26
X219.78Y-91.34
X219.78Y-101.5
T4
X198.19Y-58.32
X198.19Y-60.86
X198.19Y-63.4
X198.19Y-65.94
X198.19Y-68.48
X200.73Y-58.32
X200.73Y-60.86
X200.73Y-63.4
X200.73Y-65.94
X200.73Y-68.48
T5
X191.84Y-63.4
X191.84Y-73.56
X207.08Y-63.4
X207.08Y-73.56
T3
X181.1Y-109.65G85X181.1Y-111.35
G05
X181.1Y-134.65G85X181.1Y-136.35
G05
X181.1Y-159.65G85X181.1Y-161.35
G05
X181.1Y-184.65G85X181.1Y-186.35
G05
X181.1Y-209.65G85X181.1Y-211.35
G05
X182.159Y-117.139G85X183.361Y-118.341
G05
X182.159Y-142.139G85X183.361Y-143.341
G05
X182.159Y-167.139G85X183.361Y-168.341
G05
X182.159Y-192.139G85X183.361Y-193.341
G05
X182.159Y-217.139G85X183.361Y-218.341
G05
X187.85Y-106.6G85X186.15Y-106.6
G05
X187.85Y-131.6G85X186.15Y-131.6
G05
X187.85Y-156.6G85X186.15Y-156.6
G05
X187.85Y-181.6G85X186.15Y-181.6
G05
X187.85Y-206.6G85X186.15Y-206.6
G05
X190.85Y-119.4G85X189.15Y-119.4
G05
X190.85Y-144.4G85X189.15Y-144.4
G05
X190.85Y-169.4G85X189.15Y-169.4
G05
X190.85Y-194.4G85X189.15Y-194.4
G05
X190.85Y-219.4G85X189.15Y-219.4
G05
X193.9Y-112.65G85X193.9Y-114.35
G05
X193.9Y-137.65G85X193.9Y-139.35
G05
X193.9Y-162.65G85X193.9Y-164.35
G05
X193.9Y-187.65G85X193.9Y-189.35
G05
X193.9Y-212.65G85X193.9Y-214.35
G05
X206.1Y-109.65G85X206.1Y-111.35
G05
X206.1Y-134.65G85X206.1Y-136.35
G05
X206.1Y-159.65G85X206.1Y-161.35
G05
X206.1Y-184.65G85X206.1Y-186.35
G05
X206.1Y-209.65G85X206.1Y-211.35
G05
X207.159Y-117.139G85X208.361Y-118.341
G05
X207.159Y-142.139G85X208.361Y-143.341
G05
X207.159Y-167.139G85X208.361Y-168.341
G05
X207.159Y-192.139G85X208.361Y-193.341
G05
X207.159Y-217.139G85X208.361Y-218.341
G05
X212.85Y-106.6G85X211.15Y-106.6
G05
X212.85Y-131.6G85X211.15Y-131.6
G05
X212.85Y-156.6G85X211.15Y-156.6
G05
X212.85Y-181.6G85X211.15Y-181.6
G05
X212.85Y-206.6G85X211.15Y-206.6
G05
X215.85Y-119.4G85X214.15Y-119.4
G05
X215.85Y-144.4G85X214.15Y-144.4
G05
X215.85Y-169.4G85X214.15Y-169.4
G05
X215.85Y-194.4G85X214.15Y-194.4
G05
X215.85Y-219.4G85X214.15Y-219.4
G05
X218.9Y-112.65G85X218.9Y-114.35
G05
X218.9Y-137.65G85X218.9Y-139.35
G05
X218.9Y-162.65G85X218.9Y-164.35
G05
X218.9Y-187.65G85X218.9Y-189.35
G05
X218.9Y-212.65G85X218.9Y-214.35
G05
T0
M30
