G04 #@! TF.GenerationSoftware,KiCad,Pcbnew,7.0.0-rc2-unknown-92a61b187f~165~ubuntu22.04.1*
G04 #@! TF.CreationDate,2023-02-10T20:25:43-05:00*
G04 #@! TF.ProjectId,multiples,6d756c74-6970-46c6-9573-2e6b69636164,rev?*
G04 #@! TF.SameCoordinates,Original*
G04 #@! TF.FileFunction,Soldermask,Bot*
G04 #@! TF.FilePolarity,Negative*
%FSLAX46Y46*%
G04 Gerber Fmt 4.6, Leading zero omitted, Abs format (unit mm)*
G04 Created by KiCad (PCBNEW 7.0.0-rc2-unknown-92a61b187f~165~ubuntu22.04.1) date 2023-02-10 20:25:43*
%MOMM*%
%LPD*%
G01*
G04 APERTURE LIST*
G04 Aperture macros list*
%AMRotRect*
0 Rectangle, with rotation*
0 The origin of the aperture is its center*
0 $1 length*
0 $2 width*
0 $3 Rotation angle, in degrees counterclockwise*
0 Add horizontal line*
21,1,$1,$2,0,0,$3*%
G04 Aperture macros list end*
%ADD10O,2.500000X4.500001*%
%ADD11O,4.500001X2.500001*%
%ADD12RotRect,4.500001X2.500001X315.000000*%
%ADD13O,4.500000X2.500000*%
%ADD14O,2.500000X4.500000*%
%ADD15C,1.500000*%
%ADD16C,1.600000*%
%ADD17O,1.600000X1.600000*%
%ADD18R,1.600000X2.400000*%
%ADD19O,1.600000X2.400000*%
%ADD20R,1.727200X1.727200*%
%ADD21O,1.727200X1.727200*%
%ADD22R,1.600000X1.600000*%
%ADD23R,2.200000X2.200000*%
%ADD24O,2.200000X2.200000*%
G04 APERTURE END LIST*
D10*
G04 #@! TO.C,J8*
X218899999Y-138499999D03*
D11*
X214999999Y-144399999D03*
D12*
X207759999Y-142739999D03*
D13*
X211999999Y-131599999D03*
D14*
X206099999Y-135499999D03*
G04 #@! TD*
D10*
G04 #@! TO.C,J7*
X218899999Y-113499999D03*
D11*
X214999999Y-119399999D03*
D12*
X207759999Y-117739999D03*
D13*
X211999999Y-106599999D03*
D14*
X206099999Y-110499999D03*
G04 #@! TD*
D10*
G04 #@! TO.C,J5*
X193899999Y-188499999D03*
D11*
X189999999Y-194399999D03*
D12*
X182759999Y-192739999D03*
D13*
X186999999Y-181599999D03*
D14*
X181099999Y-185499999D03*
G04 #@! TD*
D15*
G04 #@! TO.C,TP3*
X213550000Y-51740000D03*
G04 #@! TD*
G04 #@! TO.C,TP2*
X206680000Y-51740000D03*
G04 #@! TD*
D10*
G04 #@! TO.C,J9*
X218899999Y-163499999D03*
D11*
X214999999Y-169399999D03*
D12*
X207759999Y-167739999D03*
D13*
X211999999Y-156599999D03*
D14*
X206099999Y-160499999D03*
G04 #@! TD*
D10*
G04 #@! TO.C,J4*
X193899999Y-163499999D03*
D11*
X189999999Y-169399999D03*
D12*
X182759999Y-167739999D03*
D13*
X186999999Y-156599999D03*
D14*
X181099999Y-160499999D03*
G04 #@! TD*
D10*
G04 #@! TO.C,J3*
X193899999Y-138499999D03*
D11*
X189999999Y-144399999D03*
D12*
X182759999Y-142739999D03*
D13*
X186999999Y-131599999D03*
D14*
X181099999Y-135499999D03*
G04 #@! TD*
D10*
G04 #@! TO.C,J10*
X218899999Y-188499999D03*
D11*
X214999999Y-194399999D03*
D12*
X207759999Y-192739999D03*
D13*
X211999999Y-181599999D03*
D14*
X206099999Y-185499999D03*
G04 #@! TD*
D10*
G04 #@! TO.C,J6*
X193899999Y-213499999D03*
D11*
X189999999Y-219399999D03*
D12*
X182759999Y-217739999D03*
D13*
X186999999Y-206599999D03*
D14*
X181099999Y-210499999D03*
G04 #@! TD*
D15*
G04 #@! TO.C,TP1*
X220650000Y-51740000D03*
G04 #@! TD*
D10*
G04 #@! TO.C,J11*
X218899999Y-213499999D03*
D11*
X214999999Y-219399999D03*
D12*
X207759999Y-217739999D03*
D13*
X211999999Y-206599999D03*
D14*
X206099999Y-210499999D03*
G04 #@! TD*
D10*
G04 #@! TO.C,J2*
X193899999Y-113499999D03*
D11*
X189999999Y-119399999D03*
D12*
X182759999Y-117739999D03*
D13*
X186999999Y-106599999D03*
D14*
X181099999Y-110499999D03*
G04 #@! TD*
D16*
G04 #@! TO.C,R9*
X212160000Y-73560000D03*
D17*
X212159999Y-63399999D03*
G04 #@! TD*
D16*
G04 #@! TO.C,C6*
X215970000Y-71060000D03*
X215970000Y-73560000D03*
G04 #@! TD*
G04 #@! TO.C,R2*
X194380000Y-101500000D03*
D17*
X194379999Y-91339999D03*
G04 #@! TD*
D18*
G04 #@! TO.C,U2*
X219779999Y-86259999D03*
D19*
X217239999Y-86259999D03*
X214699999Y-86259999D03*
X212159999Y-86259999D03*
X209619999Y-86259999D03*
X207079999Y-86259999D03*
X204539999Y-86259999D03*
X204539999Y-78639999D03*
X207079999Y-78639999D03*
X209619999Y-78639999D03*
X212159999Y-78639999D03*
X214699999Y-78639999D03*
X217239999Y-78639999D03*
X219779999Y-78639999D03*
G04 #@! TD*
D18*
G04 #@! TO.C,U1*
X194379999Y-86259999D03*
D19*
X191839999Y-86259999D03*
X189299999Y-86259999D03*
X186759999Y-86259999D03*
X184219999Y-86259999D03*
X181679999Y-86259999D03*
X179139999Y-86259999D03*
X179139999Y-78639999D03*
X181679999Y-78639999D03*
X184219999Y-78639999D03*
X186759999Y-78639999D03*
X189299999Y-78639999D03*
X191839999Y-78639999D03*
X194379999Y-78639999D03*
G04 #@! TD*
D16*
G04 #@! TO.C,C5*
X214700000Y-91340000D03*
X214700000Y-93840000D03*
G04 #@! TD*
G04 #@! TO.C,R4*
X179140000Y-63400000D03*
D17*
X179139999Y-73559999D03*
G04 #@! TD*
D16*
G04 #@! TO.C,R6*
X209620000Y-91340000D03*
D17*
X209619999Y-101499999D03*
G04 #@! TD*
D16*
G04 #@! TO.C,R5*
X186760000Y-73560000D03*
D17*
X186759999Y-63399999D03*
G04 #@! TD*
D20*
G04 #@! TO.C,J1*
X198189999Y-68479999D03*
D21*
X200729999Y-68479999D03*
X198189999Y-65939999D03*
X200729999Y-65939999D03*
X198189999Y-63399999D03*
X200729999Y-63399999D03*
X198189999Y-60859999D03*
X200729999Y-60859999D03*
X198189999Y-58319999D03*
X200729999Y-58319999D03*
G04 #@! TD*
D16*
G04 #@! TO.C,R3*
X179140000Y-101500000D03*
D17*
X179139999Y-91339999D03*
G04 #@! TD*
D16*
G04 #@! TO.C,C4*
X182950000Y-71020000D03*
X182950000Y-73520000D03*
G04 #@! TD*
G04 #@! TO.C,R1*
X189300000Y-91340000D03*
D17*
X189299999Y-101499999D03*
G04 #@! TD*
D16*
G04 #@! TO.C,R10*
X219780000Y-63400000D03*
D17*
X219779999Y-73559999D03*
G04 #@! TD*
D16*
G04 #@! TO.C,R8*
X204540000Y-101500000D03*
D17*
X204539999Y-91339999D03*
G04 #@! TD*
D16*
G04 #@! TO.C,C3*
X184220000Y-91340000D03*
X184220000Y-93840000D03*
G04 #@! TD*
D22*
G04 #@! TO.C,C2*
X188029999Y-55779999D03*
D16*
X188030000Y-58280000D03*
G04 #@! TD*
G04 #@! TO.C,R7*
X219780000Y-101500000D03*
D17*
X219779999Y-91339999D03*
G04 #@! TD*
D22*
G04 #@! TO.C,C1*
X210889999Y-58319999D03*
D16*
X210890000Y-55820000D03*
G04 #@! TD*
D23*
G04 #@! TO.C,D2*
X191839999Y-73559999D03*
D24*
X191839999Y-63399999D03*
G04 #@! TD*
D23*
G04 #@! TO.C,D1*
X207079999Y-63399999D03*
D24*
X207079999Y-73559999D03*
G04 #@! TD*
M02*
